<svg xmlns="http://www.w3.org/2000/svg" width="3543" height="3543" viewBox="0 0 3543 3543" version="1.1">
	<path d="M 1695.500 291.430 C 1677.736 296.410, 1656.419 308.806, 1630 329.519 C 1590.403 360.564, 1542.009 410.794, 1524.138 439.397 C 1516.661 451.364, 1513.693 459.019, 1513.202 467.601 C 1512.329 482.871, 1517.102 494.323, 1529.412 506.502 C 1543.335 520.276, 1555.924 524.954, 1579.151 524.983 C 1601.735 525.011, 1623.135 520.293, 1652.167 508.885 C 1673.691 500.427, 1688.312 490.184, 1693.163 480.164 C 1694.941 476.491, 1695.179 474.679, 1694.676 468.673 C 1693.163 450.622, 1676.769 431.632, 1657.700 425.840 C 1651.688 424.014, 1649.087 423.814, 1637.158 424.259 C 1620.422 424.884, 1610.580 427.316, 1589.880 435.943 C 1574.598 442.312, 1572.986 442.771, 1573.022 440.750 C 1573.194 430.935, 1601.385 401.657, 1645.500 365.477 C 1675.336 341.007, 1685.334 334.756, 1705.372 328.043 C 1724.853 321.517, 1727.833 319.557, 1730.055 311.809 C 1730.738 309.425, 1730.208 308.002, 1726.683 302.760 C 1719.191 291.620, 1708.579 287.764, 1695.500 291.430 M 1942.330 320.481 C 1920.496 324.443, 1905.137 333.278, 1903.682 342.712 C 1903.098 346.497, 1903.939 346.939, 1912.073 347.126 C 1919.353 347.294, 1922.082 346.679, 1937.938 341.299 C 1953.884 335.889, 1962.573 334.777, 1967.629 337.499 C 1972.260 339.994, 1975 346.028, 1975 353.734 C 1975 359.141, 1974.366 361.103, 1969.442 370.940 C 1960.040 389.722, 1953.528 398.378, 1934.142 417.868 C 1924.439 427.624, 1904.808 446.382, 1890.517 459.553 C 1853.782 493.409, 1850 497.306, 1850 501.306 C 1850 507.863, 1855.712 512.021, 1867.555 514.083 C 1875.775 515.514, 1889.138 514.845, 1912.153 511.848 C 1933.978 509.006, 1952.378 508.984, 1970.500 511.778 C 1992.465 515.164, 1999.060 515.450, 2011.860 513.569 C 2027.214 511.312, 2048.317 505.889, 2055.015 502.480 C 2060.189 499.847, 2060.358 499.645, 2058 498.922 C 2055.553 498.171, 2029.384 495.968, 1999.500 493.996 C 1976.199 492.458, 1934.436 491.001, 1913.667 491 C 1903.308 491, 1894.983 490.607, 1895.167 490.128 C 1895.350 489.648, 1911.412 474.051, 1930.860 455.468 C 1975.560 412.756, 1985.631 401.315, 1994.585 383.081 C 1999.997 372.061, 2001.307 366.011, 2000.792 354.426 C 2000.244 342.096, 1997.455 335.331, 1990.341 329.069 C 1980.460 320.371, 1961.565 316.991, 1942.330 320.481 M 1634 461.666 C 1620.665 463.763, 1601.843 470.426, 1590.510 477.059 C 1582.267 481.884, 1574 488.030, 1574 489.334 C 1574 489.875, 1579.682 490.064, 1587.750 489.791 C 1600.839 489.349, 1602.155 489.106, 1615.125 484.744 C 1634.251 478.313, 1658 466.842, 1658 464.036 C 1658 461.986, 1642.006 460.406, 1634 461.666 M 1786 472.696 C 1781.388 475.073, 1774.502 485.400, 1772.973 492.230 C 1769.606 507.275, 1781.820 518.134, 1800.518 516.720 C 1818.162 515.386, 1827.064 504.856, 1820.931 492.575 C 1818.168 487.044, 1808.114 477.119, 1802.233 474.119 C 1796.129 471.005, 1790.275 470.492, 1786 472.696 M 1035.770 633.057 C 1017.683 633.672, 998.224 634.954, 982.500 636.565 C 980.850 636.734, 979.163 636.901, 978.750 636.936 C 978.337 636.971, 978 637.926, 978 639.057 C 978 640.189, 971.515 659.651, 963.588 682.307 C 947.424 728.510, 942.431 744.185, 937.410 764.500 C 931.871 786.909, 929 805.499, 929 818.948 L 929 830.773 932.019 831.216 C 933.679 831.460, 935.443 831.171, 935.938 830.575 C 939.639 826.115, 954.518 783.858, 964.484 749.500 C 978.800 700.147, 983.795 677.199, 984.698 656.625 L 985.307 642.750 993.403 643.382 C 1011.504 644.796, 1055.353 646.985, 1085 647.955 C 1102.325 648.521, 1121.900 649.208, 1128.500 649.481 C 1193.916 652.187, 1371.942 652.562, 1400.500 650.054 C 1415.550 648.732, 1428.211 646.701, 1432.500 644.919 L 1435.500 643.673 1430 642.950 C 1426.975 642.551, 1416.400 641.936, 1406.500 641.581 C 1385.544 640.830, 1251.156 635.320, 1233.500 634.487 C 1185.677 632.231, 1082.059 631.482, 1035.770 633.057 M 2625.277 654.044 C 2615.923 660.173, 2602.638 672.427, 2581.082 694.808 L 2561.664 714.970 2557.582 714.346 C 2551.183 713.367, 2543.093 710.043, 2541.961 707.927 C 2541.291 706.675, 2541.266 705.372, 2541.889 704.208 C 2543.332 701.511, 2552.256 693.436, 2555.843 691.581 C 2557.579 690.683, 2559 689.615, 2559 689.206 C 2559 688.798, 2557.811 686.672, 2556.358 684.482 C 2549.022 673.427, 2546.821 673.287, 2537.377 683.270 C 2528.290 692.876, 2524.851 699.343, 2524.233 707.990 C 2523.426 719.272, 2528.086 725.372, 2541.153 730.136 C 2544.369 731.309, 2547 732.869, 2547 733.603 C 2547 734.337, 2544.963 738.086, 2542.474 741.934 C 2533.391 755.975, 2528.775 768.785, 2530.858 774.171 C 2531.653 776.227, 2532.378 776.714, 2534.011 776.287 C 2538.102 775.217, 2547.123 765.644, 2556.135 752.808 C 2562.020 744.425, 2566.867 738.655, 2569.866 736.462 C 2574.884 732.793, 2583.131 730.493, 2587.414 731.568 C 2589.750 732.154, 2591.118 731.179, 2599.277 723.109 L 2608.500 713.988 2601.500 714.586 C 2597.650 714.915, 2593.438 714.777, 2592.140 714.279 C 2589.893 713.418, 2590.471 712.627, 2604.068 697.937 C 2624.595 675.761, 2635.429 663.436, 2637.039 660.428 C 2638.298 658.074, 2638.225 657.428, 2636.328 654.152 C 2635.165 652.143, 2633.603 650.380, 2632.857 650.233 C 2632.111 650.086, 2628.700 651.801, 2625.277 654.044 M 2686.785 658.750 C 2673.846 676.864, 2647.831 720.183, 2636.306 742.805 C 2625.738 763.549, 2625.534 766.235, 2633.840 775.250 C 2635.234 776.763, 2636.932 778, 2637.613 778 C 2639.128 778, 2650.172 760.664, 2675.651 718.287 C 2696.900 682.946, 2706 666.441, 2706 663.240 C 2706 660.370, 2701.530 655.311, 2696.914 652.956 C 2694.805 651.880, 2692.909 651, 2692.701 651 C 2692.492 651, 2689.830 654.487, 2686.785 658.750 M 2151.789 659.737 C 2139.461 676.975, 2111.025 724.310, 2100.946 744.371 C 2093.080 760.027, 2091.856 764.887, 2094.494 769.989 C 2096.156 773.203, 2101.724 779, 2103.149 779 C 2104.150 779, 2118.186 756.650, 2140.651 719.287 C 2162.114 683.590, 2171 667.440, 2171 664.128 C 2171 661.091, 2168.391 657.397, 2164.647 655.132 C 2158.124 651.185, 2157.829 651.291, 2151.789 659.737 M 2274.500 655.487 C 2266.688 657.606, 2260.457 660.576, 2251.291 666.551 C 2243.191 671.830, 2242.685 672.016, 2239.501 670.864 C 2236.732 669.863, 2235.428 669.947, 2231.718 671.364 C 2222.108 675.034, 2201.611 691.871, 2188.335 707 C 2180.494 715.935, 2173.203 729.042, 2170.918 738.309 C 2169.390 744.510, 2170.231 753.573, 2172.805 758.617 C 2175.210 763.332, 2182.261 770.072, 2187.681 772.837 C 2198.110 778.158, 2217.491 780.086, 2230 777.047 C 2237.726 775.170, 2253.107 769.209, 2254.411 767.587 C 2255.010 766.841, 2259.289 764.794, 2263.920 763.038 C 2283.787 755.502, 2297.366 742.014, 2308.536 718.720 C 2314.006 707.314, 2315.949 700.087, 2316.661 688.500 C 2317.138 680.753, 2316.902 678.665, 2314.967 673.500 C 2311.854 665.193, 2304.452 657.793, 2297.068 655.608 C 2290.558 653.681, 2281.344 653.632, 2274.500 655.487 M 2720.071 658.775 C 2712.291 666.555, 2720.054 678.220, 2731.876 676.514 C 2739.413 675.426, 2760.094 674.804, 2765.724 675.495 C 2768.623 675.852, 2771.961 676.997, 2773.224 678.069 L 2775.500 680 2773 682.113 C 2766.569 687.549, 2748.901 694.571, 2725.500 700.993 L 2712.500 704.561 2712.854 710.531 C 2713.364 719.125, 2714.057 720.005, 2720.285 719.974 C 2723.153 719.960, 2729.796 719.530, 2735.046 719.019 C 2742.312 718.312, 2746.172 718.421, 2751.209 719.475 C 2761.894 721.710, 2769 726.193, 2769 730.697 C 2769 736.252, 2748.621 752.310, 2737.448 755.558 C 2732.228 757.076, 2732.045 757.057, 2726.912 754.455 C 2722.422 752.180, 2720.937 751.902, 2716.334 752.477 C 2709.102 753.381, 2705 756.779, 2705 761.866 C 2705 766.843, 2707.273 769.753, 2713.382 772.597 C 2723.399 777.262, 2740.609 775.217, 2754 767.773 C 2771.980 757.777, 2782.968 744.301, 2782.990 732.218 C 2783.002 726.058, 2781.331 721.591, 2776.500 714.868 L 2773.018 710.020 2779.402 705.988 C 2790.208 699.163, 2796.005 691.737, 2798.081 682.060 C 2801.681 665.273, 2785.301 657.571, 2743.321 656.310 L 2723.141 655.705 2720.071 658.775 M 2281.500 670.480 C 2268.704 673.297, 2262.275 676.751, 2238.126 693.784 C 2224.450 703.430, 2221.483 705.140, 2220.126 704.160 C 2216.240 701.357, 2215.665 701.606, 2208.565 709.156 C 2195.461 723.089, 2186.012 742.563, 2187.367 752.837 C 2188.256 759.574, 2193.380 764.224, 2201.720 765.865 C 2220.527 769.565, 2256.423 758.795, 2274.775 743.946 C 2291.958 730.043, 2304 706.257, 2304 686.220 C 2304 676.347, 2302.402 672.484, 2297.466 670.421 C 2293.371 668.710, 2289.473 668.725, 2281.500 670.480 M 2367 672.374 C 2357.789 674.910, 2352.534 678.420, 2351.840 682.500 C 2351.288 685.746, 2359.312 685.726, 2369.128 682.457 C 2378.671 679.279, 2383.215 678.979, 2385.839 681.354 C 2392.678 687.544, 2385.623 703.099, 2367.769 721.191 C 2362.121 726.915, 2349.963 738.700, 2340.750 747.379 C 2330.825 756.730, 2324 763.913, 2324 765.008 C 2324 767.749, 2328.524 770.806, 2333.739 771.588 C 2336.381 771.984, 2345.658 771.513, 2355.536 770.482 C 2372.008 768.762, 2373.346 768.761, 2387.210 770.448 C 2401.490 772.185, 2401.832 772.181, 2412.593 770.122 C 2423.846 767.969, 2432 765.333, 2432 763.848 C 2432 763.382, 2431.605 763, 2431.122 763 C 2430.639 763, 2421.301 762.354, 2410.372 761.564 C 2399.442 760.775, 2380.898 759.821, 2369.163 759.445 L 2347.825 758.761 2370.190 736.631 C 2396.988 710.114, 2401.848 703.027, 2401.956 690.315 C 2402.031 681.482, 2398.934 676.321, 2391.500 672.890 C 2386.759 670.702, 2374.047 670.434, 2367 672.374 M 1044.779 695.737 C 1027.091 720.427, 990.805 781.516, 982.422 800.717 C 978.677 809.296, 978.222 813.559, 980.533 818.428 C 982.093 821.716, 989.611 829.727, 990.393 828.935 C 992.781 826.516, 1031.009 764.284, 1048.710 734 C 1064.718 706.613, 1066.369 703.104, 1064.979 699.436 C 1063.080 694.424, 1058.513 690.488, 1052.420 688.613 C 1050.686 688.080, 1049.416 689.264, 1044.779 695.737 M 1365.771 695.737 C 1347.096 721.767, 1308.535 787.236, 1302.298 803.500 C 1300.822 807.350, 1299.554 810.610, 1299.479 810.744 C 1299.405 810.879, 1290.829 810.283, 1280.422 809.419 C 1270.015 808.556, 1248.958 807.546, 1233.630 807.175 L 1205.759 806.500 1228.355 784.670 C 1252.187 761.646, 1258.455 754.388, 1263.211 744.310 C 1270.478 728.912, 1266.168 714.063, 1253.315 710.213 C 1238.138 705.665, 1209.967 713.693, 1211.177 722.220 C 1211.705 725.942, 1217.792 725.729, 1230.283 721.550 C 1242.712 717.391, 1244.992 717.229, 1248.506 720.252 C 1253.213 724.300, 1252.953 729.017, 1247.431 739.821 C 1241.051 752.300, 1233.334 760.881, 1204.653 787.386 C 1190.243 800.702, 1180.728 810.234, 1180.353 811.731 C 1179.890 813.576, 1180.400 814.853, 1182.399 816.845 L 1185.063 819.500 1202.282 819.120 C 1230.149 818.505, 1245.729 818.595, 1258.500 819.445 C 1271.506 820.310, 1281.909 818.988, 1293.519 814.994 C 1296.706 813.897, 1299.432 813, 1299.577 813 C 1299.722 813, 1300.140 814.360, 1300.505 816.022 C 1300.870 817.684, 1303.348 821.396, 1306.012 824.272 C 1310.710 829.344, 1310.900 829.440, 1312.368 827.500 C 1317.408 820.839, 1359.750 751.548, 1375.002 725.001 C 1386.176 705.553, 1387.299 702.919, 1385.942 699.337 C 1384.080 694.423, 1379.470 690.475, 1373.420 688.613 C 1371.687 688.080, 1370.414 689.265, 1365.771 695.737 M 1103.935 711.290 C 1096.225 713.918, 1092.638 716.096, 1090.404 719.506 C 1086.315 725.746, 1093.519 726.788, 1107.428 721.969 C 1112.240 720.302, 1118.126 718.670, 1120.509 718.344 C 1124.263 717.829, 1125.185 718.094, 1127.420 720.330 C 1132.386 725.295, 1130.369 733.853, 1120.720 748.763 C 1117.752 753.350, 1110.020 761.563, 1096.487 774.500 C 1054.271 814.858, 1057.447 811.490, 1058.802 814.464 C 1061.065 819.432, 1065.576 820.362, 1083 819.452 C 1103.012 818.406, 1121.344 818.406, 1137.031 819.449 C 1148.190 820.192, 1150.704 820.039, 1159.986 818.051 C 1171.188 815.653, 1178 813.324, 1178 811.891 C 1178 811.401, 1177.662 810.987, 1177.250 810.970 C 1176.838 810.954, 1168.850 810.280, 1159.500 809.473 C 1150.150 808.665, 1129.563 807.708, 1113.750 807.345 C 1097.938 806.983, 1085 806.403, 1085 806.058 C 1085 805.712, 1094.273 796.671, 1105.606 785.965 C 1136.124 757.138, 1143.844 746.578, 1144.778 732.387 C 1145.048 728.277, 1144.748 723.766, 1144.067 721.703 C 1142.576 717.186, 1136.293 711.453, 1131.321 710.072 C 1124.593 708.204, 1111.245 708.798, 1103.935 711.290 M 2495.992 738.831 C 2495.981 748.910, 2494.211 758.027, 2491.450 762.229 C 2490.103 764.279, 2489 766.652, 2489 767.501 C 2489 769.697, 2481.801 773.978, 2468.765 779.532 C 2462.569 782.173, 2457.088 784.692, 2456.584 785.132 C 2456.066 785.585, 2457.636 787.900, 2460.203 790.466 C 2464.558 794.822, 2464.968 795, 2470.618 794.988 C 2483.452 794.962, 2495.044 789.443, 2503.146 779.500 C 2509.718 771.435, 2512.211 764.632, 2512.317 754.479 C 2512.447 741.961, 2508.718 735.673, 2499.685 733.179 L 2496 732.161 2495.992 738.831 M 726.394 762.750 C 715.067 786.265, 711.787 795.943, 711.222 807.521 C 710.630 819.642, 712.283 824, 717.471 824 C 720.737 824, 721.374 823.489, 724.896 818.040 C 735.522 801.600, 745.877 765.816, 743.568 753.513 C 742.816 749.504, 739.086 745, 736.518 745 C 735.468 745, 732.104 750.898, 726.394 762.750 M 796.262 764.250 C 785.888 786.186, 783.461 792.818, 781.856 803.608 C 780.682 811.505, 781.664 819.685, 784.145 822.675 C 785.726 824.579, 791.033 824.314, 792.652 822.250 C 803.293 808.677, 816.383 768.408, 814.417 755.293 C 813.688 750.431, 809.824 745, 807.094 745 C 805.832 745, 802.912 750.188, 796.262 764.250 M 867.448 762.750 C 856.417 785.518, 852.897 795.816, 852.230 807.276 C 851.818 814.354, 852.066 816.821, 853.512 820.026 C 855.071 823.484, 855.729 824, 858.579 824 C 862.702 824, 864.727 821.542, 870.523 809.500 C 878.634 792.649, 885 770.619, 885 759.403 C 885 751.065, 881.669 745, 877.090 745 C 876.516 745, 872.178 752.987, 867.448 762.750 M 2598.834 800.910 C 2590.061 806.784, 2578.657 817.375, 2554.500 842.087 C 2543.523 853.316, 2535.618 860.624, 2534.238 860.818 C 2531.501 861.202, 2521.369 858.401, 2518.250 856.399 C 2513.215 853.166, 2516.690 846.957, 2527.516 839.839 L 2533.865 835.664 2530.783 831.082 C 2522.951 819.441, 2521.107 819.250, 2511.756 829.115 C 2503.328 838.007, 2498.952 846.501, 2498.320 855.196 C 2497.960 860.149, 2498.273 862.250, 2499.783 865 C 2502.384 869.739, 2508.884 874.546, 2515.518 876.637 C 2518.867 877.693, 2521 878.933, 2521 879.825 C 2521 880.627, 2519.260 884.039, 2517.133 887.406 C 2507.876 902.065, 2503.003 915.248, 2504.951 920.370 C 2506.204 923.667, 2506.582 923.651, 2512.223 920.074 C 2517.121 916.968, 2521.372 912.031, 2530.605 898.725 C 2541.568 882.928, 2548.287 878.029, 2559.015 878.010 L 2564.530 878 2573.959 869.195 L 2583.388 860.391 2573.569 860.820 C 2567.183 861.099, 2563.881 860.895, 2564.125 860.236 C 2564.331 859.679, 2573.350 849.610, 2584.167 837.861 C 2606.325 813.794, 2612 806.986, 2612 804.475 C 2612 802.426, 2608.210 796, 2607.002 796 C 2606.543 796, 2602.867 798.210, 2598.834 800.910 M 2129.200 801.766 C 2114.180 820.822, 2072.020 893.039, 2067.985 906.622 C 2066.423 911.880, 2067.849 916.638, 2072.451 921.517 C 2076.408 925.712, 2077.988 925.862, 2080.107 922.244 C 2080.990 920.735, 2084.918 914.440, 2088.835 908.255 C 2100.828 889.319, 2134.481 833.070, 2139.893 822.917 C 2142.794 817.473, 2145 812.029, 2145 810.313 C 2145 806.669, 2141.804 802.961, 2136.198 800.101 L 2132.143 798.032 2129.200 801.766 M 2662.733 802.750 C 2646.702 824.900, 2612.203 882.914, 2605.012 899.813 C 2601.774 907.421, 2601.400 910.275, 2603.060 914.685 C 2604.099 917.447, 2610.726 925, 2612.110 925 C 2613.522 925, 2664.944 840.566, 2674.889 821.917 C 2680.527 811.345, 2681.013 808.557, 2677.905 804.607 C 2675.939 802.107, 2669.238 798, 2667.125 798 C 2666.600 798, 2664.623 800.138, 2662.733 802.750 M 2250.500 801.493 C 2242.612 803.246, 2235.271 806.632, 2225.588 812.982 C 2219.267 817.128, 2217.156 818.036, 2215.088 817.500 C 2208.384 815.763, 2203.143 817.752, 2191.500 826.456 C 2182.291 833.341, 2165.334 849.540, 2158.987 857.517 C 2153.553 864.345, 2146.896 877.516, 2144.941 885.306 C 2142.529 894.914, 2145.711 905.810, 2152.993 912.877 C 2165.900 925.403, 2190.136 928.467, 2213.570 920.534 C 2219.582 918.499, 2226.075 915.772, 2228 914.474 C 2229.925 913.175, 2234.911 910.807, 2239.079 909.210 C 2257.218 902.261, 2272.860 886.378, 2283.114 864.498 C 2288.871 852.213, 2290.473 845.259, 2290.488 832.500 C 2290.498 822.868, 2290.207 820.940, 2288.142 817 C 2283.268 807.698, 2276.896 803.006, 2266.535 801.091 C 2259.369 799.766, 2258.126 799.797, 2250.500 801.493 M 2251.500 817.873 C 2241.557 820.740, 2232.679 825.745, 2213.697 839.187 L 2195.618 851.990 2193.373 849.881 L 2191.129 847.772 2187.947 850.038 C 2183.298 853.348, 2173.087 866.683, 2168.251 875.760 C 2158.926 893.260, 2159.217 904.323, 2169.152 910.011 C 2173.198 912.327, 2174.368 912.490, 2186 912.351 C 2200.451 912.180, 2207.840 910.687, 2222.345 905.010 C 2235.821 899.736, 2243.946 894.859, 2252.308 887.025 C 2268.387 871.962, 2277.948 852.152, 2278.308 833.157 C 2278.479 824.153, 2276.881 819.507, 2272.909 817.453 C 2269.154 815.511, 2258.999 815.710, 2251.500 817.873 M 2720 817.345 C 2708.822 819.986, 2702 824.280, 2702 828.674 C 2702 830.754, 2702.463 831, 2706.368 831 C 2708.770 831, 2714.832 829.650, 2719.839 828 C 2724.846 826.350, 2729.980 825, 2731.249 825 C 2736.977 825, 2740.324 831.459, 2738.095 838.213 C 2735.687 845.509, 2727.960 856.797, 2719.367 865.572 C 2714.490 870.551, 2702.850 881.708, 2693.500 890.364 C 2684.150 899.020, 2675.899 906.954, 2675.165 907.995 C 2673.380 910.527, 2674.524 913.708, 2677.821 915.381 C 2682.475 917.742, 2689.105 918.048, 2702.500 916.521 C 2717.804 914.776, 2728.217 914.625, 2736.500 916.027 C 2749.829 918.284, 2770.202 916.071, 2779.188 911.391 L 2782.500 909.665 2779.854 908.947 C 2776.198 907.955, 2742.686 905.881, 2718.097 905.127 L 2697.681 904.500 2717.411 885.543 C 2738.485 865.295, 2744.551 858.186, 2749.253 848.221 C 2751.861 842.693, 2752.172 841.078, 2751.851 834.717 C 2751.409 825.976, 2748.862 821.711, 2742.368 818.839 C 2736.769 816.362, 2726.938 815.705, 2720 817.345 M 2345.500 817.680 C 2333.872 820.282, 2325.386 825.537, 2326.166 829.651 C 2326.731 832.629, 2332.141 832.437, 2342.609 829.067 C 2347.847 827.380, 2353.609 826, 2355.412 826 C 2361.985 826, 2364.623 833.111, 2361.092 841.309 C 2355.467 854.367, 2350.750 859.535, 2304.686 903.099 C 2298.478 908.970, 2297.783 909.999, 2298.389 912.415 C 2299.563 917.090, 2304.453 918.359, 2318.500 917.635 C 2325.100 917.295, 2334.110 916.604, 2338.522 916.099 C 2343.373 915.544, 2349.500 915.542, 2354.022 916.095 C 2371.818 918.267, 2379.137 918.280, 2389.155 916.154 C 2399.521 913.955, 2406 911.660, 2406 910.187 C 2406 909.684, 2401.387 908.971, 2395.750 908.601 C 2365.101 906.593, 2352.951 906.050, 2338.167 906.026 C 2329.183 906.012, 2321.983 905.634, 2322.167 905.187 C 2322.350 904.741, 2330.921 896.303, 2341.213 886.437 C 2351.506 876.572, 2362.146 865.717, 2364.858 862.315 C 2380.311 842.933, 2379.803 823.286, 2363.724 818.511 C 2358.937 817.089, 2349.966 816.680, 2345.500 817.680 M 1977 867.045 C 1957.357 869.445, 1930.006 875.916, 1921.794 880.105 L 1917.734 882.177 1918.368 888.248 C 1919.075 895.007, 1921.156 899.290, 1925.200 902.304 L 1927.901 904.316 1938.700 901.654 C 1944.640 900.190, 1955.048 897.431, 1961.829 895.523 C 1968.610 893.615, 1982.560 890.673, 1992.829 888.985 C 2017.912 884.862, 2019.274 884.475, 2018.446 881.698 C 2016.446 874.996, 2011.263 870.034, 2004.118 867.982 C 1998.799 866.454, 1985.577 865.997, 1977 867.045 M 2469.814 889.741 C 2469.413 899.476, 2469.014 901.405, 2466.182 907.277 C 2464.432 910.905, 2463 914.330, 2463 914.888 C 2463 916.324, 2452.283 922.085, 2440.250 927.118 C 2434.613 929.476, 2430 931.656, 2430 931.963 C 2430 932.270, 2431.900 934.478, 2434.221 936.870 L 2438.443 941.219 2447.471 940.812 C 2458.616 940.310, 2465.564 937.417, 2473.378 930.027 C 2491.225 913.148, 2491.228 882.905, 2473.383 879.413 L 2470.265 878.803 2469.814 889.741 M 2488.944 956.363 C 2488.639 956.683, 2475.814 957.006, 2460.444 957.081 C 2432.630 957.217, 2417.784 957.540, 2303.500 960.491 C 2244.732 962.009, 2167.327 964.430, 2143.500 965.497 C 2136.900 965.793, 2121.150 966.490, 2108.500 967.046 C 2070.241 968.730, 2039.780 970.937, 2038.343 972.130 C 2037.604 972.743, 2037 974.236, 2037 975.448 C 2037 981.580, 2049.973 987.042, 2073 990.607 C 2087.142 992.796, 2143.131 993.181, 2193 991.432 C 2234.236 989.986, 2304.799 987.265, 2320.500 986.516 C 2326 986.253, 2337.700 985.799, 2346.500 985.507 C 2355.300 985.215, 2374.875 984.530, 2390 983.985 C 2445.173 981.999, 2566.597 978.885, 2641.500 977.535 C 2691.755 976.629, 2790.448 973.843, 2790.998 973.315 C 2791.984 972.369, 2787.407 969.897, 2781.018 967.924 C 2767.746 963.825, 2734.618 959.865, 2702 958.479 C 2694.025 958.140, 2685.700 957.633, 2683.500 957.352 C 2677.774 956.621, 2489.612 955.665, 2488.944 956.363 M 651.358 1182.692 C 649.815 1182.993, 648.909 1184.286, 648.123 1187.305 C 647.149 1191.045, 647.248 1191.682, 649.032 1193.174 C 650.133 1194.095, 653.861 1195.789, 657.315 1196.938 C 665.645 1199.710, 668 1201.462, 668 1204.885 C 668 1210.969, 660.056 1219.590, 643.512 1231.460 C 628.227 1242.426, 614.747 1249, 607.545 1249 C 604.210 1249, 604.128 1248.892, 601.524 1241.073 C 599.754 1235.757, 598.986 1231.558, 599.192 1228.323 L 599.500 1223.500 605.046 1223.206 C 609.721 1222.959, 611.213 1223.338, 614.546 1225.624 C 617.264 1227.488, 619.582 1228.269, 621.962 1228.122 C 623.867 1228.005, 625.625 1227.709, 625.869 1227.464 C 626.114 1227.219, 626.622 1224.988, 626.999 1222.505 C 627.677 1218.041, 627.626 1217.937, 622.364 1212.960 C 610.192 1201.448, 595.685 1199.070, 586.552 1207.089 C 581.478 1211.543, 579.706 1217.141, 580.192 1227.171 C 580.556 1234.675, 581.112 1236.612, 585.798 1246.722 C 588.659 1252.895, 591 1258.372, 591 1258.895 C 591 1259.417, 589.313 1260.392, 587.250 1261.060 C 575.549 1264.851, 557.171 1276.888, 545.358 1288.498 C 536.023 1297.673, 534.067 1301.821, 535.887 1308.582 C 541.795 1330.520, 592.312 1331.608, 616.003 1310.307 C 625.058 1302.166, 626.228 1294.137, 620.602 1278.752 L 617.037 1269.004 620.769 1266.659 C 622.821 1265.370, 628.550 1261.948, 633.500 1259.055 C 647.006 1251.163, 659.713 1242.013, 668.290 1234.003 C 676.992 1225.876, 686.492 1212.602, 685.401 1210.095 C 685.019 1209.218, 683.818 1205.868, 682.733 1202.651 C 681.263 1198.295, 679.355 1195.398, 675.252 1191.295 C 667.196 1183.240, 660.633 1180.876, 651.358 1182.692 M 2823.500 1182.990 C 2793 1184.717, 2762.905 1187.922, 2745 1191.349 C 2739.250 1192.450, 2738.466 1192.876, 2738.209 1195.047 C 2737.907 1197.599, 2734.596 1210.957, 2721.118 1264 C 2709.250 1310.708, 2702.533 1342.434, 2698.462 1371 C 2697.561 1377.325, 2696.614 1383.162, 2696.358 1383.971 C 2696.087 1384.830, 2694.115 1382.123, 2691.624 1377.471 C 2670.928 1338.829, 2647.262 1302.198, 2639.150 1296.250 C 2633.422 1292.050, 2628.356 1280.890, 2686.581 1400.750 C 2693.056 1414.077, 2694.290 1416, 2696.372 1416 C 2697.683 1416, 2699.221 1415.438, 2699.790 1414.750 C 2701.151 1413.107, 2712.481 1368.692, 2719.398 1337.884 C 2734.412 1271.019, 2741.939 1227.836, 2742.096 1207.662 L 2742.166 1198.739 2748.833 1199.406 C 2759.505 1200.473, 2852.840 1200.868, 2884 1199.978 C 2954.058 1197.978, 2998.025 1193.759, 3010.649 1187.825 C 3013.042 1186.700, 3015 1185.449, 3015 1185.044 C 3015 1184.640, 3009.262 1184.013, 3002.250 1183.651 C 2981.634 1182.588, 2839.858 1182.063, 2823.500 1182.990 M 873.347 1208.039 C 861.501 1210.146, 851 1216.140, 851 1220.794 C 851 1225.079, 855.937 1225.002, 869.864 1220.500 C 875.818 1218.575, 882.060 1217, 883.734 1217 C 891.451 1217, 894.196 1225.482, 889.613 1235.169 C 882.549 1250.101, 875.831 1257.738, 843.646 1287.424 C 831.882 1298.273, 821.704 1308.185, 821.027 1309.450 C 819.356 1312.573, 821.111 1315.731, 825.548 1317.585 C 829.482 1319.228, 842.666 1319.451, 854.526 1318.075 C 870.874 1316.177, 875.383 1316.100, 886.801 1317.525 C 902.568 1319.492, 909.341 1319.376, 921.343 1316.933 C 931.490 1314.868, 940.852 1311.518, 939.699 1310.365 C 938.611 1309.277, 906.223 1307.056, 876.606 1306.038 C 860.714 1305.492, 847.555 1304.889, 847.364 1304.698 C 847.173 1304.507, 857.102 1294.593, 869.429 1282.668 C 898.178 1254.856, 905.207 1245.493, 906.681 1233.046 C 908.504 1217.653, 900.965 1208.821, 884.970 1207.611 C 881.411 1207.342, 876.181 1207.535, 873.347 1208.039 M 1177 1226.772 C 1167.663 1233, 1145.755 1251.108, 1120.767 1273.250 C 1117.198 1276.412, 1113.742 1279, 1113.087 1279 C 1111.114 1279, 1106.263 1267.202, 1103.423 1255.500 C 1099.456 1239.147, 1096.011 1233.523, 1090.362 1234.175 C 1085.944 1234.685, 1084.798 1237.985, 1085.388 1248.500 C 1086.200 1263, 1090.698 1276.273, 1098.462 1287.080 L 1101.875 1291.830 1093.949 1297.033 C 1089.590 1299.895, 1083.993 1304.127, 1081.512 1306.438 C 1077.709 1309.980, 1077 1311.230, 1077 1314.397 C 1077 1317.216, 1077.730 1318.884, 1079.923 1321.077 C 1085.391 1326.545, 1091.284 1324.551, 1108.694 1311.343 C 1113.537 1307.668, 1118.228 1304.706, 1119.118 1304.759 C 1120.008 1304.812, 1122.933 1306.188, 1125.618 1307.816 C 1132.133 1311.767, 1135 1312.607, 1135 1310.567 C 1135 1308.440, 1135.056 1308.455, 1143.882 1313 C 1150.978 1316.653, 1152.323 1317, 1159.392 1317 L 1167.133 1317 1166.816 1314.282 C 1166.543 1311.931, 1164.223 1310.205, 1149.623 1301.494 C 1140.341 1295.956, 1132.860 1290.991, 1132.998 1290.462 C 1133.136 1289.933, 1142.530 1281.894, 1153.874 1272.599 C 1179.481 1251.615, 1192.906 1240.044, 1193.987 1238.024 C 1195.084 1235.975, 1193.011 1231.227, 1189.502 1227.750 C 1186.252 1224.529, 1180.982 1224.117, 1177 1226.772 M 2912.500 1240.670 C 2898.679 1249.719, 2887.462 1260.066, 2851.568 1296.873 L 2829.750 1319.246 2824.357 1318.612 C 2814.044 1317.400, 2804 1312.495, 2804 1308.671 C 2804 1304.217, 2812.782 1295.142, 2822.742 1289.305 C 2825.132 1287.905, 2826.954 1286.437, 2826.793 1286.043 C 2826.632 1285.649, 2824.025 1281.886, 2821 1277.680 C 2815.678 1270.280, 2815.366 1270.032, 2811.364 1270.016 C 2807.455 1270.001, 2806.765 1270.485, 2798.830 1278.824 C 2783.342 1295.099, 2777.547 1312.333, 2783.589 1324.144 C 2786.831 1330.481, 2795.613 1336.508, 2806.177 1339.645 C 2809.777 1340.714, 2811 1341.566, 2811 1343.004 C 2811 1344.064, 2808.496 1348.773, 2805.435 1353.468 C 2793.958 1371.076, 2788.020 1387.196, 2790.288 1394.588 C 2791.519 1398.597, 2791.804 1398.651, 2797.214 1395.891 C 2803.392 1392.739, 2810.408 1385.085, 2821.406 1369.500 C 2826.840 1361.800, 2832.909 1353.765, 2834.893 1351.644 C 2842.146 1343.891, 2849.669 1340.636, 2859.982 1340.788 L 2866.500 1340.884 2878.377 1329.689 L 2890.255 1318.495 2878.127 1318.853 C 2870.119 1319.089, 2866 1318.855, 2866 1318.164 C 2866 1317.588, 2872.863 1309.767, 2881.250 1300.783 C 2918.110 1261.302, 2928.440 1248.960, 2927.391 1245.656 C 2926.343 1242.353, 2921.862 1235.995, 2920.617 1236.043 C 2920.003 1236.067, 2916.350 1238.149, 2912.500 1240.670 M 732 1249.026 C 725.675 1249.417, 714.139 1249.796, 706.365 1249.868 C 692.337 1249.999, 692.217 1250.019, 690.539 1252.581 C 686.419 1258.869, 687.796 1266.726, 693.493 1269.430 C 697.457 1271.311, 706.187 1271.418, 737.500 1269.969 C 759.515 1268.950, 806.513 1265.421, 810.750 1264.468 C 812.610 1264.050, 813 1263.289, 813 1260.080 C 813 1256.728, 812.537 1255.925, 809.616 1254.201 C 802.123 1249.780, 762.517 1247.139, 732 1249.026 M 479.500 1258.514 C 458.491 1260.958, 436.224 1265.351, 430.162 1268.247 C 428.616 1268.985, 427.359 1270.513, 427.164 1271.889 C 426.692 1275.212, 429.749 1282.711, 432.306 1284.502 C 435.443 1286.699, 444.008 1286.358, 455.500 1283.579 C 471.486 1279.713, 485.589 1277.203, 506.353 1274.532 C 525.901 1272.016, 529 1271.401, 529 1270.041 C 529 1269.631, 527.987 1267.806, 526.750 1265.985 C 521.054 1257.603, 506.757 1255.342, 479.500 1258.514 M 1018.500 1257.696 C 1000.598 1259.304, 970.137 1264.761, 962.901 1267.656 L 958.778 1269.306 959.223 1274.675 C 959.570 1278.855, 960.300 1280.704, 962.521 1283.022 C 965.001 1285.611, 966.085 1286, 970.809 1286 C 973.798 1286, 982.376 1284.625, 989.872 1282.944 C 1010.232 1278.378, 1016.983 1277.167, 1034 1275.023 C 1057.952 1272.005, 1059.143 1271.791, 1059.675 1270.404 C 1060.487 1268.289, 1056.953 1263.341, 1053.090 1261.182 C 1046.688 1257.604, 1033.883 1256.314, 1018.500 1257.696 M 597.043 1278.468 C 595.203 1279.826, 587.578 1284.556, 580.099 1288.979 C 572.619 1293.402, 565.038 1298.389, 563.250 1300.061 C 559.746 1303.339, 559.045 1306.420, 561.582 1307.393 C 567.527 1309.674, 586.693 1305.901, 598.089 1300.205 C 603.757 1297.371, 605.953 1295.655, 607.424 1292.907 L 609.348 1289.314 605.625 1282.657 C 603.577 1278.996, 601.562 1276, 601.145 1276 C 600.729 1276, 598.883 1277.111, 597.043 1278.468 M 747.500 1288.697 C 738.228 1289.533, 710.040 1293.256, 704.500 1294.376 L 698.500 1295.590 698.500 1302.541 L 698.500 1309.491 702.500 1310.850 C 710.916 1313.708, 755.901 1310.535, 792.989 1304.467 C 807.162 1302.148, 808.665 1301.701, 810.665 1299.216 C 811.867 1297.722, 812.547 1296.233, 812.175 1295.908 C 810.087 1294.076, 795.111 1289.919, 787.431 1289.040 C 779.066 1288.081, 756.478 1287.887, 747.500 1288.697 M 1758.465 1595.952 C 1757.346 1596.405, 1755.923 1597.389, 1755.304 1598.138 C 1754.684 1598.887, 1751.661 1609.175, 1748.585 1621 C 1745.510 1632.825, 1740.968 1650.150, 1738.493 1659.500 C 1736.018 1668.850, 1732.384 1682.751, 1730.418 1690.391 C 1725.779 1708.417, 1725.539 1709, 1722.765 1709 C 1721.509 1709, 1713.961 1707.007, 1705.991 1704.572 C 1666.165 1692.403, 1644.611 1686, 1643.470 1686 C 1641.802 1686, 1636 1692.654, 1636 1694.567 C 1636 1695.939, 1650.819 1713.709, 1668.468 1733.500 C 1672.392 1737.900, 1678.470 1744.875, 1681.975 1749 C 1685.541 1753.196, 1689.483 1756.813, 1690.924 1757.211 C 1693.915 1758.037, 1657.823 1757.417, 1621 1756.009 C 1606.975 1755.473, 1578.400 1754.572, 1557.500 1754.006 C 1536.600 1753.441, 1514.325 1752.749, 1508 1752.470 C 1501.675 1752.190, 1472.200 1751.307, 1442.500 1750.506 C 1412.800 1749.706, 1383.100 1748.823, 1376.500 1748.545 C 1369.900 1748.266, 1355.725 1747.785, 1345 1747.476 C 1334.275 1747.166, 1304.125 1746.262, 1278 1745.465 C 1251.875 1744.669, 1221.950 1743.771, 1211.500 1743.470 C 1177.787 1742.501, 1180.036 1742.857, 1170.976 1737.045 C 1166.589 1734.231, 1160.937 1731.045, 1158.417 1729.964 C 1153.306 1727.774, 1145.041 1727.359, 1143.200 1729.200 C 1141.559 1730.841, 1141.694 1734.508, 1143.526 1738.050 L 1145.051 1741 1131.692 1741 C 1124.345 1741, 1118.045 1740.712, 1117.693 1740.360 C 1117.341 1740.008, 1118.316 1738.096, 1119.859 1736.110 C 1121.402 1734.125, 1123 1731.924, 1123.410 1731.220 C 1124.330 1729.639, 1119.430 1721, 1117.613 1721 C 1115.735 1721, 1105.620 1727.753, 1097.559 1734.390 L 1090.619 1740.104 1083.059 1739.571 C 1078.902 1739.278, 1065.375 1738.798, 1053 1738.506 C 1040.625 1738.213, 1025.213 1737.696, 1018.750 1737.358 C 1008.343 1736.813, 1007 1736.538, 1007 1734.948 C 1007 1731.126, 997.279 1722.963, 992.790 1723.015 C 992.080 1723.023, 989.475 1725.974, 987 1729.573 L 982.500 1736.117 952 1735.536 C 935.225 1735.217, 918.125 1734.749, 914 1734.495 C 909.875 1734.241, 896.150 1733.786, 883.500 1733.483 C 870.850 1733.180, 845.875 1732.511, 828 1731.997 C 810.125 1731.482, 786.275 1730.818, 775 1730.520 C 763.725 1730.222, 749.100 1729.764, 742.500 1729.501 C 711.384 1728.262, 685 1727.850, 685 1728.602 C 685 1729.059, 685.739 1731.368, 686.642 1733.733 C 687.732 1736.586, 688.994 1738.168, 690.392 1738.432 C 691.551 1738.652, 707.575 1739.337, 726 1739.955 C 744.425 1740.574, 771.200 1741.504, 785.500 1742.023 C 850.207 1744.373, 867.318 1745.005, 879 1745.476 C 885.875 1745.753, 898.250 1746.215, 906.500 1746.502 C 938.956 1747.631, 972.425 1749.169, 972.850 1749.552 C 973.042 1749.725, 968.926 1756.759, 963.703 1765.183 C 943.747 1797.367, 926.073 1829.003, 922.462 1839.002 C 920.557 1844.278, 920.394 1849.960, 922.055 1853.197 C 923.610 1856.228, 930.115 1863, 931.471 1863 C 933.125 1863, 970.490 1802.974, 992.942 1764.250 L 1001.204 1750 1005.852 1750.011 C 1008.408 1750.017, 1012.178 1750.299, 1014.230 1750.639 L 1017.959 1751.255 1011.007 1758.700 C 1001.854 1768.500, 997.831 1776.594, 997.299 1786.280 C 996.960 1792.452, 997.236 1794.067, 999.201 1797.405 C 1002.443 1802.912, 1007.559 1806.690, 1015.563 1809.486 C 1019.360 1810.813, 1022.630 1812.391, 1022.831 1812.993 C 1023.031 1813.594, 1020.922 1817.554, 1018.143 1821.793 C 1007.170 1838.533, 1001.682 1854.650, 1005.314 1859.473 C 1006.679 1861.286, 1007.023 1861.326, 1009.563 1859.973 C 1015.312 1856.910, 1021.918 1849.718, 1032.340 1835.177 C 1046.646 1815.218, 1051.142 1811.821, 1063.890 1811.344 L 1071.280 1811.067 1078.890 1803.847 C 1083.075 1799.876, 1087.599 1795.601, 1088.942 1794.348 L 1091.384 1792.070 1082.942 1792.633 C 1067.559 1793.658, 1067.538 1793.830, 1085.023 1774.942 C 1093.394 1765.899, 1101.219 1757.480, 1102.411 1756.233 L 1104.579 1753.966 1131.961 1754.980 C 1152.556 1755.743, 1159.880 1756.347, 1161.510 1757.415 C 1162.702 1758.196, 1169.098 1764.160, 1175.722 1770.667 C 1185.978 1780.742, 1188.331 1783.659, 1191.561 1790.302 C 1198.488 1804.545, 1196.739 1813.336, 1184.718 1824.705 C 1177.547 1831.488, 1168.996 1836.901, 1149.500 1847 C 1140.700 1851.558, 1133.152 1855.593, 1132.727 1855.967 C 1131.347 1857.179, 1134.878 1864, 1136.885 1864 C 1137.907 1864, 1143.189 1862.877, 1148.622 1861.505 C 1159.984 1858.636, 1177.377 1850.375, 1186.500 1843.516 C 1194.913 1837.190, 1207.341 1824.702, 1211.185 1818.712 C 1214.056 1814.238, 1214.404 1812.937, 1214.237 1807.308 C 1213.862 1794.673, 1207.310 1772.611, 1200.956 1762.592 C 1199.274 1759.939, 1198.033 1757.689, 1198.199 1757.591 C 1198.539 1757.389, 1221.227 1758.184, 1279.500 1760.441 C 1338.428 1762.723, 1342.428 1762.886, 1379.500 1764.504 C 1398.200 1765.320, 1425.425 1766.441, 1440 1766.995 C 1467.718 1768.049, 1481.789 1768.624, 1501 1769.487 C 1524.382 1770.539, 1536.105 1771.025, 1561.500 1771.997 C 1575.800 1772.544, 1603.025 1773.676, 1622 1774.513 C 1640.975 1775.349, 1663.925 1776.312, 1673 1776.652 C 1682.075 1776.993, 1689.954 1777.626, 1690.510 1778.059 C 1691.065 1778.492, 1694.343 1779.166, 1697.794 1779.556 C 1703.738 1780.229, 1705.363 1781.384, 1700.666 1781.599 C 1693.634 1781.921, 1693 1782.079, 1693 1783.519 C 1693 1784.650, 1693.655 1784.874, 1695.561 1784.395 C 1697.622 1783.878, 1698.231 1784.168, 1698.678 1785.876 C 1698.983 1787.044, 1699.825 1788, 1700.549 1788 C 1702.125 1788, 1703.114 1790.788, 1703.413 1796.075 C 1703.533 1798.215, 1703.940 1800.273, 1704.316 1800.649 C 1705.490 1801.823, 1705.065 1805.701, 1703.633 1806.890 C 1702.593 1807.753, 1701.967 1807.665, 1701.019 1806.523 C 1700.334 1805.698, 1699.326 1805.298, 1698.780 1805.636 C 1698.176 1806.009, 1698.315 1806.577, 1699.135 1807.083 C 1700.146 1807.708, 1700.198 1808.202, 1699.340 1809.060 C 1696.676 1811.724, 1702.053 1822.018, 1710.394 1830.223 L 1716.775 1836.500 1718.449 1848 C 1719.370 1854.325, 1722.316 1874.575, 1724.996 1893 C 1727.676 1911.425, 1730.589 1931.225, 1731.468 1937 C 1732.348 1942.775, 1733.485 1950.650, 1733.995 1954.500 C 1734.505 1958.350, 1736.764 1974.100, 1739.016 1989.500 C 1747.049 2044.434, 1751.910 2077.958, 1756.417 2109.500 C 1758.931 2127.100, 1761.911 2147.575, 1763.039 2155 C 1766.335 2176.693, 1768.156 2189.290, 1775.982 2244.500 C 1778.164 2259.900, 1780.858 2278.350, 1781.967 2285.500 C 1783.076 2292.650, 1786.227 2314.250, 1788.969 2333.500 C 1794.037 2369.076, 1797.049 2389.864, 1810.558 2482.500 C 1814.729 2511.100, 1818.569 2537.650, 1819.093 2541.500 C 1819.616 2545.350, 1820.375 2550.750, 1820.780 2553.500 L 1821.517 2558.500 1827.115 2558.796 L 1832.714 2559.091 1833.304 2552.796 C 1833.629 2549.333, 1833.926 2523.100, 1833.966 2494.500 C 1834.005 2465.900, 1834.228 2434.400, 1834.460 2424.500 C 1834.693 2414.600, 1835.151 2363.975, 1835.478 2312 C 1835.806 2260.025, 1836.266 2209.175, 1836.501 2199 C 1836.736 2188.825, 1837.218 2130.325, 1837.573 2069 C 1837.928 2007.675, 1838.357 1952.100, 1838.527 1945.500 C 1838.697 1938.900, 1838.873 1920.338, 1838.918 1904.250 C 1838.994 1877.022, 1839.122 1875, 1840.761 1875 C 1841.729 1875, 1848.142 1878.194, 1855.011 1882.097 C 1871.581 1891.513, 1872.151 1891.834, 1897 1905.752 C 1908.825 1912.375, 1921.200 1919.398, 1924.500 1921.358 C 1927.800 1923.318, 1932.525 1926, 1935 1927.318 C 1937.475 1928.636, 1951.650 1936.602, 1966.500 1945.020 C 1981.350 1953.439, 1998.225 1963.004, 2004 1966.276 C 2009.775 1969.549, 2020.350 1975.495, 2027.500 1979.489 C 2034.650 1983.484, 2048.600 1991.360, 2058.500 1996.992 C 2068.400 2002.624, 2081.450 2010.031, 2087.500 2013.453 C 2093.550 2016.875, 2105.475 2023.648, 2114 2028.506 C 2122.525 2033.363, 2131.750 2038.539, 2134.500 2040.009 C 2137.250 2041.478, 2142.875 2044.620, 2147 2046.991 C 2151.125 2049.363, 2163.050 2056.122, 2173.500 2062.012 C 2183.950 2067.902, 2197.900 2075.779, 2204.500 2079.516 C 2211.100 2083.253, 2218.307 2087.296, 2220.515 2088.502 C 2222.723 2089.707, 2229.248 2093.411, 2235.015 2096.733 C 2240.782 2100.055, 2254.950 2108.081, 2266.500 2114.570 C 2278.050 2121.058, 2290.425 2128.019, 2294 2130.038 C 2297.575 2132.057, 2306.125 2136.861, 2313 2140.713 C 2319.875 2144.566, 2337.650 2154.593, 2352.500 2162.995 C 2367.350 2171.398, 2387.150 2182.545, 2396.500 2187.766 C 2405.850 2192.987, 2418 2199.849, 2423.500 2203.014 C 2429 2206.180, 2442.500 2213.841, 2453.500 2220.039 C 2464.500 2226.237, 2473.658 2231.434, 2473.852 2231.589 C 2474.046 2231.744, 2473.483 2232.900, 2472.602 2234.158 C 2468.668 2239.775, 2472.166 2245.411, 2481.853 2249.062 C 2486.608 2250.854, 2489.001 2251.117, 2497 2250.729 L 2506.500 2250.269 2514 2254.491 C 2518.125 2256.813, 2524.200 2260.197, 2527.500 2262.011 C 2530.800 2263.825, 2537.775 2267.791, 2543 2270.826 C 2548.225 2273.860, 2556.325 2278.445, 2561 2281.015 C 2565.675 2283.584, 2582.550 2293.111, 2598.500 2302.185 C 2614.450 2311.259, 2632.148 2321.297, 2637.829 2324.491 C 2643.509 2327.686, 2648.731 2330.874, 2649.433 2331.576 C 2650.134 2332.277, 2652.317 2333.523, 2654.283 2334.345 C 2656.248 2335.166, 2668.126 2341.652, 2680.678 2348.758 C 2721.011 2371.591, 2728.972 2376, 2729.862 2376 C 2731.285 2376, 2736.250 2367.844, 2735.338 2367.004 C 2734.877 2366.580, 2724.375 2359.381, 2712 2351.006 C 2699.625 2342.631, 2688.898 2335.211, 2688.162 2334.516 C 2687.072 2333.486, 2687.905 2333.130, 2692.662 2332.592 C 2695.873 2332.228, 2704.800 2331.017, 2712.500 2329.901 C 2723.986 2328.236, 2726.824 2327.491, 2728.305 2325.757 C 2730.097 2323.658, 2730.065 2323.627, 2723.805 2321.255 C 2715.585 2318.140, 2697.431 2317.198, 2679.537 2318.957 L 2666.838 2320.206 2652.669 2310.694 C 2637.430 2300.464, 2603.358 2277.365, 2585.500 2265.155 C 2579.450 2261.019, 2567.525 2252.916, 2559 2247.148 C 2504.749 2210.443, 2507.373 2212.389, 2504.585 2206.794 C 2498.811 2195.208, 2501.454 2193.628, 2535.918 2188.054 C 2546.913 2186.275, 2554.665 2184.556, 2555.153 2183.787 C 2556.521 2181.631, 2556.113 2180.022, 2553.545 2177.455 C 2550.352 2174.261, 2543.597 2174.182, 2528.618 2177.166 C 2518.333 2179.214, 2517.495 2179.244, 2513.359 2177.711 L 2508.982 2176.089 2501.240 2180.059 C 2489.050 2186.309, 2487.797 2187.592, 2487.845 2193.785 L 2487.885 2199.002 2476.693 2191.329 C 2454.399 2176.046, 2424.617 2155.807, 2401.386 2140.155 C 2393.199 2134.638, 2376.600 2123.386, 2364.500 2115.151 C 2352.400 2106.916, 2331.475 2092.720, 2318 2083.605 C 2304.525 2074.489, 2285.625 2061.656, 2276 2055.087 C 2257.987 2042.792, 2220.882 2017.612, 2180.500 1990.279 C 2149.741 1969.460, 2129.582 1955.784, 2111.500 1943.471 C 2081.067 1922.748, 2072.190 1916.733, 2058.500 1907.563 C 2050.800 1902.405, 2039.325 1894.621, 2033 1890.266 C 2009.669 1874.201, 2005.121 1871.092, 1987 1858.826 C 1976.825 1851.939, 1964.545 1843.535, 1959.712 1840.152 C 1954.879 1836.768, 1950.633 1834, 1950.276 1834 C 1949.920 1834, 1948.700 1833.167, 1947.564 1832.150 C 1945.733 1830.508, 1918.198 1811.567, 1908.097 1805 C 1893.233 1795.336, 1885.317 1789.350, 1886.215 1788.452 C 1886.849 1787.817, 1934.866 1790.084, 1993 1793.493 C 2006.475 1794.283, 2025.825 1795.402, 2036 1795.980 C 2046.175 1796.557, 2055.850 1797.234, 2057.500 1797.483 C 2059.150 1797.733, 2066.575 1798.188, 2074 1798.495 C 2081.425 1798.802, 2089.750 1799.257, 2092.500 1799.506 C 2095.250 1799.755, 2101.775 1800.198, 2107 1800.490 C 2132.692 1801.928, 2151.226 1803.053, 2158.149 1803.594 L 2165.799 1804.193 2166.516 1794.622 C 2166.911 1789.359, 2166.996 1784.431, 2166.704 1783.672 C 2166.310 1782.643, 2162.775 1782.118, 2152.837 1781.612 C 2145.502 1781.239, 2132.750 1780.504, 2124.500 1779.978 C 2116.250 1779.453, 2098.475 1778.346, 2085 1777.519 C 2071.525 1776.692, 2049.250 1775.324, 2035.500 1774.480 C 2021.750 1773.636, 2006.225 1772.727, 2001 1772.460 C 1995.775 1772.194, 1988.800 1771.759, 1985.500 1771.496 C 1982.200 1771.232, 1972.975 1770.775, 1965 1770.480 C 1957.025 1770.184, 1944.425 1769.511, 1937 1768.983 C 1929.575 1768.455, 1918.775 1767.791, 1913 1767.509 C 1868.765 1765.344, 1838.006 1763.339, 1837.238 1762.572 C 1837.046 1762.379, 1840.980 1761.897, 1845.982 1761.501 C 1857.530 1760.587, 1858.436 1759.829, 1856.353 1752.818 C 1853.507 1743.235, 1851.962 1740.634, 1850.510 1742.984 C 1850.165 1743.543, 1848.382 1744, 1846.548 1744 C 1844.507 1744, 1842.991 1744.582, 1842.638 1745.500 C 1842.322 1746.325, 1841.119 1747, 1839.966 1747 C 1838.812 1747, 1836.969 1747.481, 1835.870 1748.069 C 1833.378 1749.403, 1831.474 1748.029, 1830.519 1744.209 C 1830.147 1742.719, 1828.138 1737.900, 1826.055 1733.500 C 1823.972 1729.100, 1821.696 1723.700, 1820.998 1721.500 C 1820.300 1719.300, 1818.843 1716.240, 1817.761 1714.700 C 1816.678 1713.160, 1815.199 1709.785, 1814.474 1707.200 C 1813.749 1704.615, 1809.052 1693.050, 1804.037 1681.500 C 1799.022 1669.950, 1793.382 1656.675, 1791.503 1652 C 1789.624 1647.325, 1784.667 1635.400, 1780.487 1625.500 C 1776.307 1615.600, 1771.994 1605.175, 1770.903 1602.334 C 1769.336 1598.254, 1768.265 1596.939, 1765.810 1596.084 C 1762.228 1594.835, 1761.263 1594.817, 1758.465 1595.952 M 2845 1685.096 C 2828.680 1685.934, 2809.157 1687.785, 2807.802 1688.623 C 2807.361 1688.895, 2807 1689.914, 2807 1690.886 C 2807 1691.859, 2801.883 1707.245, 2795.630 1725.077 C 2780.710 1767.623, 2776.579 1780.448, 2771.984 1798.500 C 2765.238 1824.997, 2761.735 1849.446, 2763.408 1858.359 C 2763.961 1861.311, 2764.532 1862, 2766.423 1862 C 2769.598 1862, 2770.182 1861.110, 2775.289 1848.495 C 2787.495 1818.341, 2805.422 1756.639, 2811.140 1725.099 C 2812.297 1718.719, 2813.301 1708.867, 2813.372 1703.205 L 2813.500 1692.911 2817 1693.456 C 2827.318 1695.065, 2898.021 1698.099, 2973 1700.152 C 3033.828 1701.817, 3156.853 1701.839, 3178 1700.188 C 3200.832 1698.407, 3215 1696.031, 3215 1693.985 C 3215 1693.601, 3207.688 1692.989, 3198.750 1692.625 C 3160.363 1691.063, 3084.674 1687.923, 3063 1686.994 C 2993.156 1684, 2884.706 1683.056, 2845 1685.096 M 1760.500 1712.228 C 1750.715 1713.446, 1741.960 1716.611, 1734.277 1721.708 C 1722.949 1729.224, 1717.433 1736.687, 1710.039 1754.500 C 1708.717 1757.683, 1708.379 1777.141, 1709.519 1784.399 C 1709.873 1786.655, 1712.115 1792.550, 1714.501 1797.500 C 1722.517 1814.128, 1736.184 1824.838, 1754.815 1829.090 C 1760.964 1830.493, 1777.604 1830.372, 1783.689 1828.879 C 1789.831 1827.373, 1801.590 1821.529, 1805.325 1818.126 C 1813.867 1810.344, 1818.739 1804.016, 1822.168 1796.252 C 1824.238 1791.565, 1826.857 1776.340, 1826.952 1768.450 C 1826.978 1766.223, 1827.447 1763.953, 1827.994 1763.406 C 1829.393 1762.007, 1825.631 1748.964, 1821.700 1741.589 C 1817.017 1732.802, 1806.683 1722.878, 1797.809 1718.646 C 1793.789 1716.729, 1788.475 1714.623, 1786 1713.967 C 1779.333 1712.198, 1767.317 1711.379, 1760.500 1712.228 M 386.028 1728.089 C 374.438 1729.656, 373.652 1745.299, 384.928 1749.970 C 386.828 1750.757, 389.806 1750.960, 393.198 1750.535 C 396.114 1750.169, 406.843 1749.648, 417.041 1749.376 L 435.582 1748.883 438.291 1751.394 C 439.781 1752.775, 441 1754.296, 441 1754.774 C 441 1756.244, 427.042 1763.696, 416.500 1767.854 C 411 1770.024, 398.738 1773.958, 389.250 1776.597 L 372 1781.396 372 1786.573 C 372 1789.420, 372.284 1793.169, 372.631 1794.904 L 373.262 1798.058 394.881 1797.779 C 415.537 1797.512, 416.757 1797.604, 422.266 1799.828 C 435.503 1805.172, 437.445 1810.650, 429.072 1819.023 C 419.987 1828.108, 401.100 1839, 394.430 1839 C 393.057 1839, 389.713 1837.875, 387 1836.500 C 384.287 1835.125, 380.901 1834, 379.476 1834 C 374.030 1834, 367.964 1836.255, 365.486 1839.199 C 358.249 1847.800, 368.287 1858.771, 384.284 1859.743 C 399.111 1860.644, 415.872 1854.560, 430.430 1842.992 C 442.297 1833.562, 448.853 1823.710, 449.735 1813.984 C 450.380 1806.876, 449.036 1802.702, 443.398 1794.294 C 440.979 1790.687, 439 1787.613, 439 1787.463 C 439 1787.313, 441.579 1785.735, 444.732 1783.956 C 453.349 1779.093, 462.219 1769.721, 464.838 1762.712 C 467.544 1755.469, 467.667 1747.531, 465.132 1743.686 C 461.151 1737.649, 451.542 1733.376, 435.347 1730.441 C 425.730 1728.698, 393.049 1727.139, 386.028 1728.089 M 527.257 1730.927 C 515.744 1737.275, 505.344 1749.148, 496.673 1765.843 C 486.546 1785.343, 483.297 1799.804, 486.358 1811.753 C 488.777 1821.194, 491.546 1825.767, 499.890 1834.096 C 509.100 1843.290, 520.075 1849.947, 532.721 1854.011 C 541.660 1856.883, 559.655 1859.700, 560.891 1858.421 C 562.270 1856.992, 550.920 1848.729, 539.602 1842.923 C 521.502 1833.638, 514.484 1828.698, 510.177 1822.211 C 506.648 1816.897, 506.501 1816.327, 506.525 1808.087 C 506.548 1800.356, 506.970 1798.454, 510.764 1789 C 515.636 1776.856, 522.835 1763.721, 527.790 1757.932 C 529.952 1755.406, 534.241 1752.393, 539.279 1749.859 C 555.459 1741.724, 558.755 1738.318, 556.909 1731.634 L 555.906 1728 544.203 1728.018 C 533.191 1728.035, 532.190 1728.207, 527.257 1730.927 M 3093.271 1730.703 C 3091.644 1731.017, 3090.741 1732.250, 3089.929 1735.263 C 3088.600 1740.198, 3089.449 1741.117, 3097.499 1743.457 C 3103.923 1745.324, 3108 1748.417, 3108 1751.423 C 3108 1761.149, 3070.696 1788.828, 3055.095 1790.675 L 3050.169 1791.259 3047.584 1783.078 C 3043.434 1769.941, 3043.934 1768, 3051.467 1768 C 3055.355 1768, 3057.635 1768.620, 3060.236 1770.385 C 3062.711 1772.065, 3064.600 1772.612, 3066.625 1772.236 C 3070.209 1771.570, 3070.965 1770.460, 3070.985 1765.835 C 3070.998 1762.708, 3070.302 1761.555, 3066.250 1757.982 C 3056.599 1749.474, 3046.483 1746.923, 3037.736 1750.793 C 3031.095 1753.730, 3028.563 1758.874, 3028.527 1769.500 C 3028.501 1777.065, 3028.786 1778.119, 3033.750 1788.885 C 3039.548 1801.458, 3039.386 1801, 3038.038 1801 C 3034.873 1801, 3024.374 1806.159, 3015.627 1812.014 C 2998.427 1823.525, 2988 1834.463, 2988 1840.992 C 2988 1844.117, 2990.487 1849.436, 2993.140 1851.984 C 2998.254 1856.896, 3005.738 1859.342, 3016.995 1859.778 C 3029.741 1860.272, 3039.416 1858.449, 3049.517 1853.652 C 3066.707 1845.489, 3071.942 1834.507, 3065.798 1819.497 C 3061.134 1808.102, 3060.972 1808.745, 3069.713 1803.948 C 3094.048 1790.592, 3111.268 1776.602, 3120.514 1762.676 C 3124.277 1757.009, 3124.288 1756.963, 3122.742 1753.241 C 3121.888 1751.183, 3120.651 1748.060, 3119.994 1746.300 C 3118.513 1742.336, 3109.223 1733.409, 3104.543 1731.453 C 3101.162 1730.041, 3097.843 1729.820, 3093.271 1730.703 M 2947.585 1735.053 C 2934.162 1737.132, 2918.691 1742.377, 2908.500 1748.302 C 2900.011 1753.238, 2895.281 1757.727, 2892.433 1763.548 C 2890.107 1768.302, 2889.805 1769.917, 2890.276 1775.104 C 2891.205 1785.352, 2896.950 1791.570, 2908.275 1794.585 C 2915.878 1796.609, 2932.927 1796.326, 2948.008 1793.924 C 2955.178 1792.782, 2961.507 1792.002, 2962.072 1792.191 C 2963.755 1792.752, 2955.955 1803.804, 2946.413 1814.378 C 2933.640 1828.534, 2928.635 1835.096, 2926.076 1841.044 C 2923.356 1847.368, 2923.885 1851.978, 2927.672 1854.957 C 2935.479 1861.097, 2943.865 1854.362, 2964.625 1825.279 C 2977.616 1807.080, 2983.246 1797.761, 2988.501 1785.762 C 2990.973 1780.118, 2994.571 1773.283, 2996.498 1770.574 C 3000.481 1764.971, 3000.968 1760.842, 2998.305 1755.230 C 2995.714 1749.770, 2986.561 1741.402, 2979.236 1737.795 C 2973.366 1734.906, 2971.627 1734.534, 2963.079 1734.347 C 2957.810 1734.232, 2950.838 1734.549, 2947.585 1735.053 M 2879.206 1739.750 C 2867.642 1754.391, 2829.156 1819.005, 2821.348 1836.888 C 2817.733 1845.169, 2817.224 1849.618, 2819.415 1853.800 C 2820.965 1856.758, 2827.715 1863.623, 2828.394 1862.932 C 2830.951 1860.331, 2877.225 1783.945, 2889.537 1762 C 2896.050 1750.391, 2896.951 1745.814, 2893.477 1741.973 C 2891.503 1739.791, 2884.933 1736, 2883.124 1736 C 2882.598 1736, 2880.835 1737.688, 2879.206 1739.750 M 2616.962 1740.314 C 2602.314 1744.411, 2578.956 1761.955, 2553.987 1787.614 C 2538.924 1803.094, 2531.465 1812.470, 2526.855 1821.720 C 2524.191 1827.065, 2523.816 1828.752, 2524.191 1833.720 C 2524.732 1840.898, 2527.018 1845.776, 2532.361 1851.149 C 2543.738 1862.590, 2561.841 1863.969, 2587.692 1855.364 C 2613.313 1846.835, 2622.178 1837.261, 2616.093 1824.691 C 2607.564 1807.073, 2589.125 1803.493, 2563.688 1814.516 C 2559.273 1816.429, 2555.458 1817.791, 2555.209 1817.542 C 2553.208 1815.541, 2568.935 1798.343, 2586.500 1783.326 C 2604.946 1767.555, 2612.010 1762.951, 2624.334 1758.667 C 2631.470 1756.187, 2633.775 1754.909, 2634.964 1752.775 C 2636.350 1750.288, 2636.318 1749.745, 2634.593 1746.544 C 2631.124 1740.100, 2625.204 1738.009, 2616.962 1740.314 M 2730.588 1740.074 C 2722.477 1742.068, 2706.738 1751.530, 2693.831 1762.171 C 2666.684 1784.552, 2641.306 1813.496, 2637.453 1826.471 C 2632.386 1843.534, 2649.138 1861, 2670.571 1861 C 2687.259 1861, 2715.391 1851.742, 2725.396 1842.957 C 2733.111 1836.183, 2732.261 1826.275, 2723.140 1816.665 C 2713.183 1806.176, 2699.408 1805.313, 2678.170 1813.848 C 2672.851 1815.985, 2668.343 1817.321, 2668.150 1816.817 C 2666.931 1813.624, 2682.122 1797.591, 2702.223 1780.855 C 2717.837 1767.855, 2725.825 1762.631, 2734.975 1759.438 C 2750.171 1754.135, 2752.099 1751.225, 2745.250 1743.927 C 2741.069 1739.472, 2737.187 1738.452, 2730.588 1740.074 M 1848 1747.845 C 1848 1749.088, 1851.915 1752.418, 1852.587 1751.746 C 1853.538 1750.796, 1851.040 1747, 1849.465 1747 C 1848.659 1747, 1848 1747.380, 1848 1747.845 M 1031.472 1757.069 C 1033.962 1760.452, 1036 1763.561, 1036 1763.977 C 1036 1764.394, 1034.088 1765.991, 1031.750 1767.527 C 1024.233 1772.468, 1019.379 1776.881, 1017.416 1780.559 L 1015.500 1784.148 1018.285 1786.556 C 1020.962 1788.871, 1027.532 1791.209, 1035.079 1792.531 C 1038.643 1793.156, 1038.732 1793.081, 1057.869 1773.329 L 1077.081 1753.500 1070.790 1752.878 C 1067.331 1752.536, 1056.050 1751.955, 1045.722 1751.587 L 1026.943 1750.917 1031.472 1757.069 M 1723.068 1752.873 C 1721.011 1756.717, 1719.858 1764.799, 1719.981 1774.500 C 1720.131 1786.192, 1720.080 1785.725, 1722.557 1798 C 1724.391 1807.085, 1724.695 1807.722, 1729.512 1812.590 C 1732.749 1815.861, 1737.578 1819.179, 1743.025 1821.875 C 1750.209 1825.432, 1753.009 1826.235, 1761.406 1827.144 C 1768.533 1827.916, 1772.320 1827.911, 1774.906 1827.124 C 1776.883 1826.523, 1780.314 1825.584, 1782.531 1825.036 C 1784.748 1824.489, 1787.448 1823.348, 1788.531 1822.502 C 1790.326 1821.099, 1789.567 1821.019, 1779.971 1821.603 C 1769.639 1822.231, 1769.385 1822.194, 1766.327 1819.622 C 1764.613 1818.180, 1762.795 1817, 1762.286 1817 C 1761.777 1817, 1760.379 1815.870, 1759.178 1814.490 C 1757.313 1812.344, 1757.177 1811.676, 1758.248 1809.890 C 1759.376 1808.007, 1759.102 1807.487, 1755.500 1804.654 C 1748.569 1799.204, 1743.297 1793.132, 1740.662 1787.568 C 1739.262 1784.610, 1737.634 1781.892, 1737.046 1781.529 C 1736.458 1781.165, 1734.357 1778.310, 1732.378 1775.184 C 1730.399 1772.058, 1727.891 1768.530, 1726.804 1767.344 C 1725.363 1765.772, 1725.074 1764.690, 1725.735 1763.344 C 1726.824 1761.128, 1726.171 1751, 1724.939 1751 C 1724.461 1751, 1723.619 1751.843, 1723.068 1752.873 M 2936.906 1755.921 C 2925.994 1759.978, 2911.836 1767.517, 2908.428 1771.083 C 2905.663 1773.978, 2905.601 1774.223, 2907.311 1775.479 C 2909.846 1777.342, 2921.475 1778.331, 2931.791 1777.562 C 2952.976 1775.982, 2972.334 1770.689, 2980.848 1764.147 L 2983.197 1762.343 2980.052 1759.698 C 2971.602 1752.587, 2950.775 1750.764, 2936.906 1755.921 M 1700 1757.992 C 1703.025 1758.383, 1705.928 1758.319, 1706.450 1757.851 C 1706.982 1757.374, 1704.564 1757.062, 1700.950 1757.141 L 1694.500 1757.282 1700 1757.992 M 601 1785.073 L 601 1796.147 609.502 1795.823 C 614.179 1795.646, 618.004 1795.849, 618.002 1796.275 C 618.001 1796.701, 616.424 1800.179, 614.498 1804.004 C 606.575 1819.736, 601.973 1835.119, 602.022 1845.708 C 602.034 1848.344, 602.912 1852.412, 603.973 1854.750 C 605.620 1858.377, 606.342 1859, 608.903 1859 C 611.342 1859, 612.494 1858.143, 615.052 1854.425 C 622.006 1844.317, 631.752 1818.502, 634.287 1803.477 L 635.632 1795.500 642.566 1794.847 C 653.294 1793.838, 690.107 1791.766, 690.426 1792.154 C 690.582 1792.344, 688.100 1797.900, 684.909 1804.500 C 676.365 1822.177, 673.811 1830.537, 673.298 1842.500 C 672.920 1851.306, 673.114 1852.888, 674.920 1855.750 C 677.391 1859.666, 680.927 1860.054, 684.047 1856.750 C 691.938 1848.393, 706 1808.237, 706 1794.061 C 706 1790.688, 706.364 1789.966, 708.250 1789.591 C 709.487 1789.345, 714.550 1788.412, 719.500 1787.519 C 731.226 1785.402, 739.768 1782.578, 743.500 1779.585 C 745.150 1778.262, 746.275 1776.964, 746 1776.702 C 745.194 1775.932, 662.127 1773.990, 630.250 1773.995 L 601 1774 601 1785.073 M 1694 1787.441 C 1694 1788.234, 1694.403 1789.131, 1694.895 1789.435 C 1695.925 1790.071, 1697.166 1787.499, 1696.264 1786.598 C 1695.191 1785.525, 1694 1785.968, 1694 1787.441 M 1696.029 1791.961 C 1695.220 1792.473, 1694.944 1793.253, 1695.416 1793.696 C 1695.888 1794.138, 1696.476 1793.935, 1696.722 1793.244 C 1696.969 1792.553, 1697.582 1792.242, 1698.085 1792.553 C 1698.588 1792.864, 1699 1792.641, 1699 1792.059 C 1699 1790.763, 1697.977 1790.729, 1696.029 1791.961 M 787.233 1795.025 C 760.596 1798.654, 743.764 1802.705, 742.055 1805.897 C 740.634 1808.553, 742.738 1816.099, 745.808 1819.356 C 748.390 1822.095, 748.787 1822.190, 755.500 1821.685 C 759.350 1821.395, 767.407 1819.990, 773.405 1818.563 C 788.186 1815.046, 803.591 1812.335, 819.351 1810.475 C 835.815 1808.533, 843 1807.136, 843 1805.879 C 843 1802.714, 839.521 1798.913, 834.275 1796.346 C 828.926 1793.729, 827.556 1793.513, 815.008 1793.305 C 806.020 1793.157, 796.726 1793.732, 787.233 1795.025 M 1694.372 1798.474 C 1693.557 1800.596, 1694.859 1801.845, 1695.986 1800.023 C 1696.673 1798.910, 1697.128 1799.186, 1698.092 1801.302 C 1699.487 1804.364, 1701.008 1804.862, 1700.985 1802.250 C 1700.963 1799.774, 1699.849 1798.379, 1697.245 1797.566 C 1695.635 1797.063, 1694.813 1797.323, 1694.372 1798.474 M 3044.953 1816.557 C 3044.242 1817.413, 3037.829 1821.575, 3030.701 1825.807 C 3008.508 1838.980, 3004.771 1844, 3017.155 1844 C 3028.699 1844, 3048.692 1837.133, 3052.349 1831.912 C 3054.684 1828.578, 3054.427 1826.489, 3050.927 1820.372 C 3047.619 1814.591, 3046.943 1814.159, 3044.953 1816.557 M 1711.587 1825.750 C 1712.526 1830.939, 1713 1831.079, 1713 1826.167 C 1713 1823.875, 1712.530 1822, 1711.955 1822 C 1711.293 1822, 1711.158 1823.376, 1711.587 1825.750 M 2577.500 1830.378 C 2569.717 1832.923, 2561.800 1836.839, 2558 1840.024 L 2555.500 1842.119 2564.500 1841.714 C 2571.982 1841.377, 2575.018 1840.692, 2582.500 1837.648 C 2593.201 1833.295, 2598.324 1830.334, 2597.490 1828.985 C 2596.385 1827.196, 2584.751 1828.007, 2577.500 1830.378 M 2692.112 1829.581 C 2685.393 1831.388, 2675.459 1836.135, 2671.500 1839.431 L 2668.500 1841.928 2675.145 1841.964 C 2682.117 1842.002, 2691.097 1839.698, 2700.957 1835.344 C 2709.166 1831.718, 2711.576 1829.979, 2709.882 1828.906 C 2707.794 1827.583, 2698.181 1827.948, 2692.112 1829.581 M 884.400 1833.510 C 881.598 1836.311, 879 1841.848, 879 1845.018 C 879 1848.389, 881.813 1852.852, 884.967 1854.483 C 888.261 1856.186, 897.552 1856.501, 901.395 1855.040 C 905.596 1853.443, 908 1850.326, 908 1846.478 C 908 1843.730, 907.076 1841.953, 903.802 1838.401 C 898.751 1832.922, 895.298 1831, 890.504 1831 C 887.999 1831, 886.148 1831.761, 884.400 1833.510 M 2958.724 2139.360 C 2952.650 2141.924, 2952.387 2142.093, 2944.595 2148.446 C 2941.185 2151.226, 2938.897 2152.363, 2937.091 2152.173 C 2933.026 2151.747, 2925.788 2157.251, 2917.638 2166.964 C 2905.049 2181.969, 2901.564 2188.061, 2898.985 2199.569 C 2897.060 2208.159, 2901.243 2216.948, 2909.308 2221.259 C 2912.921 2223.190, 2915.020 2223.500, 2924.500 2223.500 C 2935.453 2223.500, 2935.540 2223.481, 2944.809 2219.056 C 2949.929 2216.612, 2954.429 2214.100, 2954.809 2213.475 C 2955.189 2212.849, 2957.949 2211.023, 2960.941 2209.418 C 2976.639 2200.999, 2988.301 2180.251, 2988.438 2160.500 C 2988.510 2150.086, 2986.506 2145.013, 2980.514 2140.443 C 2975.352 2136.506, 2966.526 2136.067, 2958.724 2139.360 M 2967.184 2147.562 C 2958.003 2150.033, 2951.399 2154.726, 2935.739 2169.912 C 2929.758 2175.712, 2928.755 2176.328, 2927.042 2175.258 C 2925.349 2174.201, 2924.714 2174.518, 2921.997 2177.774 C 2918.203 2182.323, 2912.549 2193.817, 2910.950 2200.233 C 2908.738 2209.112, 2911.851 2215.149, 2919.351 2216.525 C 2927.428 2218.008, 2946.228 2211.295, 2958.477 2202.553 C 2971.480 2193.275, 2980.186 2176.987, 2980.402 2161.535 C 2980.516 2153.387, 2978.893 2148.728, 2975.385 2147.130 C 2974.022 2146.508, 2972.815 2146.030, 2972.703 2146.066 C 2972.591 2146.102, 2970.108 2146.775, 2967.184 2147.562 M 2860 2152.370 C 2854.651 2153.838, 2848.377 2157.690, 2842.478 2163.127 C 2839.011 2166.323, 2837.692 2166.961, 2835.623 2166.442 C 2832.087 2165.554, 2827.678 2168.478, 2819.534 2177.111 C 2804.493 2193.056, 2796.977 2206.562, 2796.820 2217.932 C 2796.752 2222.904, 2797.705 2225.796, 2800.749 2229.858 C 2808.735 2240.511, 2831.693 2240.872, 2848 2230.600 C 2851.025 2228.695, 2856.487 2225.315, 2860.138 2223.089 C 2872.147 2215.768, 2881.028 2203.031, 2885.028 2187.391 C 2891.448 2162.290, 2880.364 2146.781, 2860 2152.370 M 698.871 2154.972 C 654.565 2156.814, 620.311 2159.688, 595.500 2163.645 C 586.700 2165.048, 578.817 2166.286, 577.982 2166.395 C 575.324 2166.745, 574 2168.054, 574 2170.335 C 574 2171.554, 568.564 2191.215, 561.919 2214.026 C 539.892 2289.643, 537.220 2299.405, 529.956 2330.762 C 525.815 2348.639, 519.763 2379.396, 518.497 2389 C 518.098 2392.025, 517.562 2394.852, 517.307 2395.282 C 517.052 2395.712, 513.683 2390.987, 509.822 2384.782 C 488.240 2350.104, 463.035 2314.251, 450.345 2300.179 C 443.808 2292.930, 436.516 2287.151, 435.361 2288.305 C 435.032 2288.634, 437.474 2293.763, 440.787 2299.702 C 454.995 2325.170, 482.811 2375.508, 496.486 2400.500 C 514.200 2432.872, 514.285 2433, 517.953 2433 C 521.437 2433, 523.577 2429.994, 525.663 2422.170 C 527.995 2413.420, 529.268 2408.967, 535.291 2388.500 C 542.122 2365.289, 546.123 2350.257, 554.456 2316.500 C 570.784 2250.352, 578.335 2211.308, 579.666 2186.151 L 580.319 2173.801 586.409 2174.368 C 598.249 2175.471, 621.931 2176.072, 658.500 2176.197 C 801.995 2176.689, 905.249 2171.777, 938.174 2162.893 C 945.356 2160.955, 951.261 2157.869, 950 2156.714 C 948.363 2155.215, 729.533 2153.697, 698.871 2154.972 M 2860.618 2163.466 C 2854.144 2166.127, 2848.387 2170.466, 2835.435 2182.443 C 2827.860 2189.448, 2826.620 2190.244, 2824.932 2189.189 C 2823.248 2188.138, 2822.642 2188.508, 2819.915 2192.247 C 2812.728 2202.099, 2807.414 2216.361, 2808.592 2222.639 C 2809.959 2229.927, 2816.914 2232.317, 2828.855 2229.601 C 2846.341 2225.624, 2862.241 2215.083, 2870.508 2201.987 C 2878.926 2188.652, 2881.419 2168.562, 2875.402 2162.545 C 2873.178 2160.321, 2867.391 2160.681, 2860.618 2163.466 M 2773.522 2177.250 C 2759.499 2206.408, 2749 2232.844, 2749 2238.995 C 2749 2241.153, 2749.926 2243.080, 2751.923 2245.077 C 2755.141 2248.295, 2756.281 2248.625, 2757.705 2246.750 C 2759.843 2243.935, 2787.440 2181.418, 2789.953 2173.697 C 2790.633 2171.605, 2790.916 2168.801, 2790.581 2167.465 C 2789.967 2165.020, 2785.489 2162, 2782.478 2162 C 2781.374 2162, 2778.515 2166.869, 2773.522 2177.250 M 2616.364 2170.860 C 2613.539 2171.911, 2608.372 2174.710, 2604.881 2177.081 C 2599.889 2180.471, 2597.771 2181.336, 2594.962 2181.133 C 2592.088 2180.926, 2590.227 2181.733, 2585.445 2185.260 C 2575.990 2192.234, 2562.443 2207.295, 2558.782 2214.902 C 2552.522 2227.909, 2554.143 2238.404, 2563.333 2244.363 C 2569.306 2248.236, 2574.333 2249.299, 2584 2248.735 C 2592.378 2248.246, 2604.234 2244.621, 2608.034 2241.387 C 2608.878 2240.669, 2612.191 2238.921, 2615.398 2237.503 C 2622.436 2234.390, 2631.790 2225.753, 2636.474 2218.043 C 2641.571 2209.653, 2645.092 2198.180, 2645.118 2189.877 C 2645.144 2181.658, 2643.186 2177.085, 2637.762 2172.695 C 2632.959 2168.807, 2623.956 2168.035, 2616.364 2170.860 M 2624 2179.377 C 2616.607 2180.977, 2610.492 2184.481, 2597.531 2194.545 C 2591.541 2199.195, 2586.362 2203, 2586.020 2203 C 2585.679 2203, 2584.871 2202.471, 2584.224 2201.824 C 2582.659 2200.259, 2580.006 2202.667, 2574.668 2210.500 C 2565.695 2223.667, 2563.568 2235.274, 2569.400 2239.250 C 2580.583 2246.876, 2614.933 2234.758, 2626.394 2219.144 C 2633.115 2209.989, 2636.358 2201.544, 2636.814 2192.015 C 2637.160 2184.774, 2636.942 2183.170, 2635.360 2181.334 C 2632.824 2178.389, 2630.454 2177.981, 2624 2179.377 M 921.954 2237.594 C 907.227 2246.671, 894.973 2257.733, 855.475 2297.608 L 815.451 2338.015 809.475 2336.936 C 794.583 2334.247, 784.502 2329.848, 783.429 2325.571 C 782.600 2322.269, 785.305 2317.554, 791.357 2311.751 C 796.709 2306.619, 808.949 2298, 810.884 2298 C 813.106 2298, 811.895 2295.150, 806.380 2287.399 C 798.002 2275.624, 797.302 2275, 792.456 2275 C 788.428 2275, 787.848 2275.430, 777.881 2285.813 C 767.098 2297.045, 762.523 2303.654, 758.310 2314.085 C 755.407 2321.273, 754.271 2332.670, 755.871 2338.559 C 758.818 2349.402, 768.681 2357.816, 784.189 2362.717 C 790.728 2364.783, 792.996 2365.939, 792.998 2367.204 C 792.999 2368.142, 790.033 2373.481, 786.407 2379.069 C 774.470 2397.463, 767.044 2413.776, 765.465 2425.074 C 764.760 2430.115, 766.920 2437.007, 769.199 2436.991 C 771.860 2436.971, 780.680 2431.028, 786.167 2425.556 C 789.284 2422.448, 798.164 2410.995, 805.901 2400.104 C 821.646 2377.941, 827.020 2372.301, 836.777 2367.698 C 842.773 2364.868, 844.509 2364.518, 852.835 2364.456 L 862.170 2364.387 876.585 2351.093 C 890.444 2338.312, 893.029 2335.302, 889.250 2336.351 C 882.531 2338.215, 861 2338.007, 861 2336.078 C 861 2335.700, 871.854 2323.716, 885.120 2309.446 C 925.118 2266.421, 939 2250.072, 939 2245.989 C 939 2243.802, 931.923 2233, 930.490 2233 C 929.895 2233, 926.054 2235.067, 921.954 2237.594 M 729.720 2242.515 C 706.793 2248.277, 669.291 2275.602, 629.837 2315.293 C 597.106 2348.222, 579.637 2372.884, 578.256 2388.116 C 576.778 2404.415, 588.202 2422.570, 605.186 2430.913 C 622.689 2439.511, 648.081 2438.687, 679.051 2428.516 C 701.598 2421.111, 714.577 2414.547, 722.673 2406.455 C 729.070 2400.061, 730.452 2395.839, 728.909 2387.410 C 726.702 2375.357, 716.807 2362.984, 704.548 2356.949 C 698.503 2353.973, 696.765 2353.601, 687.166 2353.226 C 672.954 2352.671, 661.233 2355.135, 642.947 2362.521 C 635.207 2365.648, 628.617 2367.950, 628.303 2367.636 C 627.989 2367.323, 629.001 2364.474, 630.552 2361.305 C 635.743 2350.694, 668.418 2319.507, 700.815 2294.241 C 716.271 2282.188, 723.811 2277.931, 739.287 2272.520 C 750.557 2268.579, 753.588 2267.094, 756.025 2264.319 C 759.774 2260.049, 759.768 2257.502, 755.992 2251.802 C 749.753 2242.383, 741.647 2239.517, 729.720 2242.515 M 2667.500 2291.051 C 2657.050 2291.430, 2647.785 2291.798, 2646.911 2291.870 C 2645.196 2292.010, 2643 2295.964, 2643 2298.912 C 2643 2299.912, 2643.986 2301.984, 2645.191 2303.516 L 2647.382 2306.302 2670.941 2305.660 C 2683.899 2305.307, 2701.700 2304.348, 2710.500 2303.530 C 2719.300 2302.712, 2727.287 2302.033, 2728.250 2302.022 C 2730.949 2301.988, 2730.576 2296.607, 2727.746 2294.753 C 2725.113 2293.028, 2701.050 2289.916, 2692.401 2290.181 C 2689.155 2290.281, 2677.950 2290.672, 2667.500 2291.051 M 2482 2294.606 C 2474.856 2295.903, 2474.999 2295.788, 2475.022 2300.269 C 2475.063 2308.179, 2481.630 2317.731, 2487.327 2318.166 C 2488.522 2318.258, 2510.875 2318.493, 2537 2318.689 C 2563.125 2318.884, 2589.450 2319.147, 2595.500 2319.272 C 2606.003 2319.490, 2606.485 2319.410, 2606.177 2317.500 C 2605.164 2311.215, 2594.116 2303.600, 2580.798 2300.006 C 2565.711 2295.935, 2553.269 2294.842, 2518 2294.488 C 2499.575 2294.303, 2483.375 2294.356, 2482 2294.606 M 2774 2294.666 C 2766.984 2295.771, 2767 2295.757, 2767 2300.559 C 2767 2308.217, 2773.588 2317.652, 2779.327 2318.212 C 2780.522 2318.329, 2800.400 2318.441, 2823.500 2318.462 C 2846.600 2318.483, 2872.813 2318.907, 2881.750 2319.403 C 2897.643 2320.287, 2898 2320.263, 2898 2318.303 C 2898 2314.677, 2892.546 2308.569, 2886.404 2305.317 C 2876.222 2299.926, 2863.053 2296.980, 2840.500 2295.048 C 2829.257 2294.085, 2779.502 2293.800, 2774 2294.666 M 672.500 2385.432 C 658.407 2388.682, 639.503 2397.197, 632.345 2403.521 L 628.500 2406.917 638 2406.951 C 649.148 2406.992, 659.532 2404.762, 673.170 2399.400 C 690.287 2392.669, 700.332 2386.942, 697.784 2385.366 C 695.499 2383.953, 678.725 2383.997, 672.500 2385.432 M 2516.205 2385.661 C 2511.070 2387.232, 2505 2391.686, 2505 2393.882 C 2505 2396.301, 2510.251 2396.194, 2517.821 2393.622 C 2527.616 2390.293, 2530.475 2390.269, 2532.589 2393.496 C 2534.798 2396.867, 2533.898 2401.020, 2529.246 2408.921 C 2526.483 2413.614, 2520.056 2420.541, 2504.750 2435.321 C 2493.338 2446.341, 2484 2455.883, 2484 2456.524 C 2484 2458.513, 2487.328 2460.799, 2491.297 2461.536 C 2493.386 2461.923, 2500.979 2461.675, 2508.170 2460.984 C 2518.667 2459.975, 2523.539 2459.975, 2532.873 2460.983 C 2543.181 2462.097, 2545.464 2462.044, 2553 2460.515 C 2557.675 2459.567, 2563.075 2458.080, 2565 2457.212 L 2568.500 2455.633 2562.500 2454.919 C 2559.200 2454.527, 2544.430 2453.617, 2529.678 2452.899 L 2502.857 2451.592 2520.273 2434.546 C 2535.191 2419.946, 2538.171 2416.515, 2541.037 2410.638 C 2546.380 2399.686, 2545.087 2390.165, 2537.741 2386.366 C 2533.212 2384.024, 2522.683 2383.679, 2516.205 2385.661 M 2847.500 2399.498 C 2841.975 2403.272, 2831.511 2411.894, 2816.153 2425.328 C 2810.603 2430.183, 2805.591 2433.865, 2805.015 2433.510 C 2803.452 2432.543, 2801.140 2426.485, 2798.850 2417.357 C 2796.317 2407.255, 2793.883 2403, 2790.637 2403 C 2786.540 2403, 2785.643 2405.233, 2786.312 2413.778 C 2787.024 2422.876, 2789.746 2431.353, 2793.964 2437.601 C 2795.634 2440.076, 2796.999 2442.415, 2796.998 2442.800 C 2796.997 2443.185, 2795.085 2444.709, 2792.748 2446.187 C 2786.027 2450.437, 2780 2455.995, 2780 2457.943 C 2780 2458.926, 2780.933 2460.916, 2782.073 2462.365 C 2785.591 2466.838, 2789.389 2466.012, 2799.850 2458.500 C 2804.829 2454.925, 2809.318 2452, 2809.825 2452 C 2810.333 2452, 2812.876 2453.189, 2815.477 2454.643 C 2819.150 2456.696, 2820.384 2456.997, 2821.006 2455.991 C 2821.626 2454.987, 2822.823 2455.292, 2826.331 2457.348 C 2829.882 2459.429, 2832.163 2460, 2836.928 2460 C 2846.495 2460, 2845.259 2457.825, 2830.987 2449.547 C 2824.394 2445.722, 2819.022 2442.347, 2819.050 2442.047 C 2819.077 2441.746, 2825 2436.775, 2832.211 2431 C 2853.075 2414.292, 2862 2406.168, 2862 2403.886 C 2862 2401.331, 2856.773 2395.986, 2854.327 2396.041 C 2853.322 2396.063, 2850.250 2397.619, 2847.500 2399.498 M 2522.500 2622.601 C 2519.200 2622.797, 2508.400 2623.492, 2498.500 2624.148 C 2488.600 2624.803, 2479.172 2625.418, 2477.549 2625.514 C 2475.926 2625.611, 2474.297 2626.322, 2473.928 2627.095 C 2471.221 2632.762, 2442.246 2707.130, 2438.704 2717.500 C 2429.622 2744.088, 2424 2770.096, 2424 2785.517 L 2424 2794.773 2427.092 2795.227 C 2429.758 2795.618, 2430.509 2795.187, 2432.553 2792.090 C 2438.823 2782.593, 2456.196 2736.962, 2466.854 2702 C 2476.273 2671.102, 2480 2653.492, 2480 2639.890 C 2480 2632.084, 2480.213 2631.002, 2481.750 2631.015 C 2482.713 2631.023, 2489.800 2631.450, 2497.500 2631.964 C 2505.200 2632.478, 2523.425 2633.367, 2538 2633.939 C 2552.575 2634.512, 2569.900 2635.206, 2576.500 2635.483 C 2650.699 2638.594, 2866.666 2639.730, 2897.500 2637.173 C 2914.743 2635.743, 2927.765 2633.635, 2929.388 2632.012 C 2930.071 2631.329, 2929.766 2630.999, 2928.450 2630.998 C 2927.378 2630.997, 2908.725 2630.333, 2887 2629.522 C 2865.275 2628.710, 2821.850 2627.138, 2790.500 2626.028 C 2759.150 2624.917, 2730.125 2623.791, 2726 2623.524 C 2716.959 2622.940, 2531.030 2622.097, 2522.500 2622.601 M 1137.500 2658.156 C 1134.203 2659.370, 1131 2661.834, 1131 2663.155 C 1131 2664.472, 1135.318 2664.152, 1140.041 2662.486 C 1145.769 2660.464, 1148.001 2661.259, 1147.996 2665.317 C 1147.989 2670.177, 1143.325 2676.304, 1129.787 2689.239 C 1113.940 2704.378, 1113.529 2703.889, 1141.800 2703.534 C 1155.987 2703.355, 1163.444 2702.867, 1165.500 2701.981 L 1168.500 2700.688 1164.500 2699.949 C 1162.300 2699.543, 1153.571 2698.880, 1145.101 2698.477 L 1129.703 2697.744 1140.386 2687.405 C 1154.608 2673.640, 1157.882 2666.462, 1152.691 2660.427 C 1150.882 2658.324, 1149.312 2657.668, 1145.441 2657.397 C 1142.724 2657.206, 1139.150 2657.548, 1137.500 2658.156 M 2745.594 2662.046 C 2738.984 2663.168, 2729.816 2667.833, 2722.311 2673.895 C 2716.898 2678.267, 2715.695 2678.825, 2712.725 2678.343 C 2710.352 2677.958, 2708.038 2678.450, 2705.046 2679.977 C 2696.313 2684.432, 2672.854 2709.434, 2667.508 2719.984 C 2663.897 2727.110, 2660.999 2736.890, 2661.010 2741.915 C 2661.023 2748.025, 2664.773 2755.839, 2669.621 2759.857 C 2671.817 2761.677, 2676.485 2763.983, 2680.380 2765.173 C 2689.705 2768.020, 2704.394 2767.386, 2714.067 2763.718 C 2721.472 2760.910, 2729.247 2757.122, 2730.006 2755.952 C 2730.284 2755.524, 2734.306 2753.254, 2738.944 2750.908 C 2754.702 2742.938, 2766.724 2727.842, 2773.090 2708.032 C 2779.744 2687.324, 2776.054 2669.955, 2763.777 2664.199 C 2758.489 2661.720, 2752.028 2660.955, 2745.594 2662.046 M 1581.061 2668.028 C 1575.398 2670.065, 1570.822 2672.769, 1562.692 2678.884 C 1558.769 2681.834, 1557.019 2682.502, 1553.192 2682.512 C 1549.495 2682.522, 1547.440 2683.253, 1543.500 2685.961 C 1532.512 2693.512, 1512.826 2715.914, 1507.874 2726.500 C 1504.005 2734.772, 1501.676 2744.424, 1502.476 2748.870 C 1504.247 2758.708, 1511.426 2766.564, 1521.334 2769.506 C 1527.620 2771.373, 1543.740 2771.447, 1550.500 2769.640 C 1556.539 2768.025, 1570.448 2761.702, 1571.420 2760.130 C 1571.804 2759.509, 1575.911 2757.190, 1580.547 2754.977 C 1586.923 2751.935, 1590.625 2749.299, 1595.738 2744.163 C 1611.964 2727.866, 1621.526 2699.641, 1616.583 2682.638 C 1614.529 2675.571, 1608.536 2669.068, 1602.384 2667.230 C 1596.403 2665.443, 1587.303 2665.784, 1581.061 2668.028 M 1485.197 2674.762 C 1479.746 2682.527, 1456.621 2727.410, 1448.129 2746.706 C 1441.876 2760.917, 1440.595 2766.096, 1442.317 2770.215 C 1443.093 2772.073, 1445.226 2774.854, 1447.056 2776.394 C 1450.237 2779.071, 1450.445 2779.113, 1451.748 2777.347 C 1452.498 2776.331, 1463.286 2755.203, 1475.722 2730.396 C 1491.103 2699.714, 1498.333 2684.268, 1498.333 2682.090 C 1498.333 2678.347, 1496.015 2675.717, 1490.810 2673.556 C 1487.175 2672.046, 1487.091 2672.064, 1485.197 2674.762 M 2752 2674.129 C 2740.682 2675.902, 2733.663 2679.972, 2714.688 2695.771 C 2701.631 2706.642, 2700.744 2707.201, 2698.472 2705.985 C 2695.456 2704.371, 2694.403 2705.161, 2688.528 2713.447 C 2679.785 2725.778, 2674.352 2739.900, 2675.549 2747.187 C 2676.609 2753.640, 2682.871 2757.977, 2691.153 2757.994 C 2699.468 2758.012, 2713.833 2753.850, 2725.870 2747.936 C 2736.879 2742.527, 2739.277 2740.866, 2746.497 2733.645 C 2759.739 2720.404, 2766.547 2704.143, 2765.846 2687.429 C 2765.553 2680.425, 2765.144 2678.781, 2763.171 2676.681 C 2760.396 2673.729, 2758.022 2673.186, 2752 2674.129 M 2598 2675.620 C 2591.908 2676.351, 2590.002 2676.998, 2587.975 2679.025 C 2582.951 2684.049, 2588.084 2693, 2595.989 2693 C 2598.267 2693, 2601.066 2692.500, 2602.208 2691.889 C 2605.530 2690.111, 2628.612 2689.240, 2631.554 2690.782 C 2632.899 2691.487, 2634 2692.468, 2634 2692.961 C 2634 2695.853, 2609.334 2708.092, 2591.750 2713.924 C 2584.388 2716.366, 2584.047 2716.986, 2585.653 2725.013 L 2586.305 2728.276 2595.403 2727.438 C 2612.475 2725.866, 2621.982 2726.286, 2626.799 2728.825 C 2629.163 2730.071, 2631.352 2731.753, 2631.663 2732.563 C 2632.656 2735.153, 2629.883 2739.920, 2624.618 2744.669 C 2613.205 2754.965, 2604.342 2758.859, 2598.920 2755.957 C 2597.617 2755.260, 2594.835 2754.757, 2592.737 2754.839 C 2581.017 2755.298, 2577.957 2765.631, 2588.001 2770.828 C 2591.833 2772.810, 2593.537 2773.084, 2599.500 2772.671 C 2611.525 2771.840, 2622.584 2766.321, 2632.903 2756.001 C 2645.270 2743.635, 2646.653 2731.646, 2636.983 2720.634 L 2634.004 2717.240 2639.578 2712.940 C 2648.313 2706.201, 2653 2698.104, 2653 2689.751 C 2653 2686.614, 2652.320 2685.120, 2649.697 2682.497 C 2644.425 2677.225, 2638.166 2675.818, 2618.500 2675.487 C 2609.150 2675.329, 2599.925 2675.389, 2598 2675.620 M 1585.977 2680.345 C 1577.291 2683.412, 1571.107 2687.503, 1555.050 2700.805 C 1542.378 2711.303, 1541.495 2711.853, 1539.789 2710.309 C 1538.101 2708.781, 1537.804 2708.834, 1535.378 2711.086 C 1531.397 2714.781, 1525.139 2724.419, 1521.227 2732.878 C 1516.530 2743.035, 1515.693 2752.119, 1519.061 2756.371 C 1523.796 2762.348, 1530.644 2763.269, 1546.071 2760.004 C 1552.911 2758.556, 1558.808 2756.367, 1567.549 2752.032 C 1581.123 2745.299, 1589.457 2738.538, 1595.612 2729.265 C 1607.185 2711.829, 1611.270 2689.229, 1604.338 2680.990 C 1602.200 2678.449, 1601.122 2678.003, 1597.161 2678.021 C 1594.597 2678.033, 1589.565 2679.079, 1585.977 2680.345 M 2555.426 2679.797 C 2547.345 2682.626, 2537.544 2690.238, 2522.467 2705.394 C 2502.372 2725.594, 2487.344 2746.318, 2485.443 2756.451 C 2484.358 2762.238, 2486.699 2768.032, 2492.340 2773.521 C 2498.294 2779.314, 2502.782 2781, 2512.254 2781 C 2529.152 2781, 2557.450 2767.837, 2561.081 2758.288 C 2563.286 2752.487, 2557.706 2742.988, 2549.595 2738.735 C 2542.042 2734.774, 2530.328 2736.364, 2516.649 2743.205 C 2513.431 2744.814, 2510.585 2745.918, 2510.325 2745.658 C 2508.560 2743.893, 2521.804 2727.208, 2534.737 2714.905 C 2547.795 2702.483, 2553.308 2698.227, 2560.552 2694.977 C 2568.721 2691.311, 2571 2689.470, 2571 2686.532 C 2571 2683.902, 2566.418 2679.349, 2563 2678.582 C 2561.625 2678.273, 2558.217 2678.820, 2555.426 2679.797 M 2408.384 2691.878 C 2402.029 2694.040, 2394.310 2699.240, 2385 2707.629 C 2366.095 2724.664, 2347.452 2747.398, 2340.893 2761.415 C 2338.297 2766.962, 2337.840 2768.980, 2338.238 2773.129 C 2338.853 2779.527, 2342.902 2785.427, 2349.456 2789.476 C 2354.096 2792.343, 2354.901 2792.500, 2364.925 2792.498 C 2376.839 2792.495, 2383.495 2790.716, 2397.198 2783.874 C 2414.239 2775.365, 2418.114 2767.537, 2410.368 2757.272 C 2402.397 2746.709, 2388.137 2745.960, 2369.779 2755.139 C 2363.266 2758.396, 2362.998 2758.459, 2363.004 2756.750 C 2363.012 2754.369, 2368.980 2746.518, 2378.663 2736.148 C 2393.233 2720.546, 2404.242 2711.275, 2413 2707.231 C 2424.635 2701.859, 2426.185 2699.611, 2421.750 2694.538 C 2418.411 2690.720, 2414.233 2689.888, 2408.384 2691.878 M 2231.879 2711.770 C 2223.237 2726.532, 2202.187 2768.710, 2197.147 2781.364 C 2191.640 2795.190, 2191.639 2798.639, 2197.140 2804.140 L 2201.280 2808.280 2203.126 2805.890 C 2206.132 2801.998, 2249.026 2715.778, 2249.630 2712.413 C 2250.313 2708.614, 2247.261 2704.749, 2241.830 2702.536 L 2238.160 2701.040 2231.879 2711.770 M 1315.349 2717.415 C 1312.132 2719.844, 1301.459 2729.962, 1291.630 2739.900 C 1281.802 2749.839, 1273.358 2757.721, 1272.866 2757.417 C 1271.333 2756.470, 1267.887 2748.980, 1264.987 2740.294 C 1261.606 2730.166, 1259.784 2727.235, 1256.332 2726.368 C 1252.182 2725.327, 1250.697 2728.137, 1251.432 2735.642 C 1252.422 2745.747, 1256.119 2755.072, 1262.394 2763.293 L 1265.875 2767.853 1260.428 2772.056 C 1249.456 2780.521, 1246.895 2785.363, 1251.039 2789.811 C 1255.173 2794.249, 1260.192 2792.261, 1272.807 2781.191 L 1279.113 2775.656 1283.688 2777.879 C 1286.772 2779.377, 1289.181 2779.900, 1291.082 2779.482 C 1292.915 2779.079, 1295.538 2779.587, 1298.578 2780.931 C 1303.450 2783.087, 1306.604 2783.429, 1311.875 2782.375 C 1317.971 2781.156, 1315.699 2778.814, 1301.606 2771.790 L 1288.212 2765.115 1301.310 2752.308 C 1321.614 2732.454, 1324.999 2729.071, 1328.163 2725.467 C 1331.019 2722.215, 1331.061 2722.018, 1329.538 2719.073 C 1328.255 2716.593, 1323.588 2713, 1321.649 2713 C 1321.401 2713, 1318.566 2714.987, 1315.349 2717.415 M 2281.945 2714.450 C 2272.684 2717.863, 2268 2721.384, 2268 2724.934 C 2268 2726.994, 2275.864 2725.969, 2282.840 2723 C 2293.277 2718.559, 2297.388 2719.221, 2298.572 2725.532 C 2299.108 2728.387, 2298.491 2730.580, 2295.261 2737.312 C 2290.915 2746.370, 2283.928 2755.113, 2263.558 2776.983 C 2256.651 2784.398, 2251 2791.235, 2251 2792.176 C 2251 2797.269, 2260.340 2798.284, 2277 2795 C 2284.253 2793.570, 2291.196 2793, 2301.344 2793 C 2312.452 2793, 2317.105 2792.566, 2322.733 2791.007 C 2331.928 2788.459, 2338 2786.027, 2338 2784.891 C 2338 2783.689, 2313.869 2783.776, 2290.140 2785.063 C 2279.492 2785.641, 2270.644 2785.975, 2270.478 2785.807 C 2270.313 2785.638, 2275.825 2779.200, 2282.729 2771.500 C 2299.052 2753.295, 2302.544 2748.847, 2306.198 2741.608 C 2311.926 2730.261, 2310.765 2720.389, 2303.102 2715.270 C 2300.330 2713.418, 2298.396 2713.013, 2292.602 2713.070 C 2288.696 2713.109, 2283.900 2713.730, 2281.945 2714.450 M 1174.607 2718.582 C 1173.424 2721.665, 1174.105 2733.624, 1175.969 2742.500 C 1177.009 2747.450, 1177.554 2751.788, 1177.180 2752.140 C 1176.806 2752.492, 1171.378 2753.462, 1165.117 2754.296 C 1158.119 2755.228, 1153.406 2756.330, 1152.882 2757.156 C 1151.325 2759.614, 1151.971 2763.062, 1154.455 2765.545 C 1156.784 2767.875, 1157.512 2768, 1168.744 2768 L 1180.580 2768 1184.343 2776.889 C 1189.442 2788.930, 1193.275 2794.780, 1196.614 2795.618 C 1203.940 2797.457, 1204.566 2788.829, 1198.087 2775.326 C 1195.814 2770.589, 1194.207 2766.460, 1194.515 2766.152 C 1194.823 2765.843, 1202.371 2763.649, 1211.288 2761.276 C 1234.842 2755.008, 1241.205 2751.226, 1234.249 2747.629 C 1228.980 2744.904, 1220.327 2744.613, 1211 2746.846 C 1202.692 2748.836, 1191.571 2749.904, 1190.485 2748.818 C 1190.185 2748.518, 1189.543 2743.709, 1189.059 2738.131 C 1188.073 2726.780, 1186.413 2722.869, 1181.048 2719.253 C 1177.103 2716.595, 1175.436 2716.421, 1174.607 2718.582 M 1369.659 2727.854 C 1350.018 2730.129, 1346.621 2730.772, 1345.409 2732.441 C 1343.436 2735.160, 1343.655 2740.352, 1345.857 2743.072 C 1347.475 2745.069, 1348.541 2745.345, 1354.107 2745.205 C 1364.545 2744.942, 1398.300 2740.577, 1422 2736.425 C 1435.676 2734.030, 1435 2734.315, 1435 2730.930 C 1435 2728.415, 1434.408 2727.651, 1431.532 2726.449 C 1425.793 2724.051, 1396.808 2724.709, 1369.659 2727.854 M 841.500 2731.574 C 826.940 2734.890, 826.373 2734.943, 822.177 2733.385 C 816.510 2731.280, 813.887 2731.922, 803.785 2737.888 C 791.599 2745.086, 788.999 2747.771, 789.005 2753.151 C 789.011 2758.502, 798.441 2782.338, 802.645 2787.630 C 813.445 2801.220, 815.026 2803.616, 814.769 2806 C 814.400 2809.430, 808.891 2811.964, 800.311 2812.652 C 791.749 2813.338, 788.724 2812.167, 785.806 2807.035 C 783.725 2803.373, 783.207 2803.036, 780.500 2803.578 C 771.142 2805.453, 767.481 2810.429, 770.372 2817.347 C 771.457 2819.945, 773.224 2821.456, 777.925 2823.805 C 791.572 2830.624, 805.215 2830.698, 818.683 2824.024 C 835.840 2815.523, 836.136 2809.117, 820.470 2785.294 C 812.188 2772.698, 807 2763.226, 807 2760.699 C 807 2755.881, 819.116 2751.673, 851.158 2745.366 C 877.437 2740.192, 877.927 2739.959, 875.727 2733.648 C 873.442 2727.092, 863.757 2726.505, 841.500 2731.574 M 1128.973 2732.074 C 1126.513 2733.823, 1115.863 2743.964, 1105.307 2754.611 L 1086.113 2773.968 1084.222 2771.234 C 1082.188 2768.292, 1080.271 2763.710, 1076.943 2753.830 C 1073.887 2744.760, 1071.535 2741.816, 1067.642 2742.195 C 1064.647 2742.486, 1064.486 2742.725, 1064.193 2747.315 C 1063.588 2756.784, 1068.274 2770.507, 1075.019 2779.024 C 1076.659 2781.094, 1078 2783.016, 1078 2783.295 C 1078 2783.574, 1075.051 2786.194, 1071.447 2789.118 C 1064.446 2794.799, 1060.407 2800.166, 1061.578 2802.232 C 1063.417 2805.474, 1066.566 2808, 1068.770 2808 C 1071.664 2808, 1075.249 2805.632, 1084.165 2797.831 C 1087.831 2794.624, 1091.347 2792, 1091.980 2792 C 1092.612 2792, 1095.391 2792.973, 1098.155 2794.162 C 1101.995 2795.814, 1103.362 2796.033, 1103.945 2795.088 C 1104.526 2794.149, 1106.123 2794.440, 1110.605 2796.304 C 1115.349 2798.277, 1117.633 2798.657, 1122.299 2798.250 C 1131.087 2797.483, 1129.618 2795.583, 1114.096 2787.643 L 1100.693 2780.786 1121.864 2760.143 C 1136.832 2745.549, 1143.030 2738.857, 1143.018 2737.306 C 1142.995 2734.458, 1139.193 2730.237, 1135.973 2729.485 C 1134.116 2729.052, 1132.258 2729.739, 1128.973 2732.074 M 905.500 2736.399 C 897.311 2738.989, 892 2743.050, 892 2746.723 C 892 2748.935, 898.553 2748.157, 906.500 2745 C 915.239 2741.528, 918.048 2741.291, 920.345 2743.829 C 922.867 2746.616, 922.339 2752.278, 918.871 2759.616 C 915.384 2766.997, 910.749 2773.067, 898.086 2786.838 C 882.001 2804.331, 874 2813.423, 874 2814.212 C 874 2814.646, 874.900 2815.900, 876 2817 C 878.507 2819.507, 888.291 2819.685, 898 2817.400 C 901.751 2816.517, 912.748 2815.550, 924 2815.115 C 941.506 2814.438, 944.318 2814.080, 951.500 2811.618 C 955.900 2810.110, 960.175 2808.174, 961 2807.317 C 962.357 2805.907, 960.123 2805.817, 937.500 2806.371 C 923.750 2806.708, 908.234 2807.285, 903.020 2807.654 C 891.676 2808.458, 890.984 2810.344, 909.637 2789.634 C 928.664 2768.508, 933.142 2761.052, 933.239 2750.337 C 933.297 2743.947, 930.731 2739.156, 925.966 2736.752 C 921.850 2734.675, 911.514 2734.497, 905.500 2736.399 M 2534.585 2753.119 C 2529.079 2754.410, 2518.856 2759.607, 2514.866 2763.144 L 2511.500 2766.127 2517.354 2765.543 C 2525.844 2764.695, 2545 2755.995, 2545 2752.987 C 2545 2751.796, 2539.953 2751.860, 2534.585 2753.119 M 1405 2754.112 C 1389.353 2755.064, 1355.458 2761.641, 1353.994 2764.009 C 1353.708 2764.472, 1353.637 2766.898, 1353.835 2769.399 C 1354.177 2773.688, 1354.392 2773.983, 1357.621 2774.589 C 1364.826 2775.940, 1392.429 2771.815, 1419.211 2765.384 C 1430.589 2762.652, 1434.345 2761.346, 1435.479 2759.726 C 1436.290 2758.568, 1436.807 2757.474, 1436.628 2757.295 C 1435.834 2756.500, 1425.039 2754.196, 1420.500 2753.852 C 1417.750 2753.644, 1410.775 2753.761, 1405 2754.112 M 1021 2762.613 C 998.043 2766.780, 976.298 2772.731, 974.025 2775.470 C 972.344 2777.496, 973.600 2782.275, 976.539 2785.037 C 979.798 2788.098, 983.114 2787.854, 996.870 2783.541 C 1009.905 2779.454, 1019.237 2777.060, 1034.101 2773.991 C 1046.527 2771.425, 1047.946 2770.773, 1046.423 2768.329 C 1043.763 2764.062, 1040.274 2762.651, 1031.773 2762.402 C 1027.223 2762.269, 1022.375 2762.364, 1021 2762.613 M 2386.105 2765.560 C 2379.645 2767.324, 2372.349 2771.165, 2367.813 2775.188 L 2364.500 2778.126 2370.500 2777.624 C 2375.163 2777.234, 2378.821 2775.939, 2386.915 2771.811 C 2392.643 2768.890, 2397.368 2766.050, 2397.415 2765.500 C 2397.549 2763.921, 2391.997 2763.950, 2386.105 2765.560 M 1926.472 2876.346 C 1917.160 2880.816, 1906.997 2889.115, 1892.488 2904.097 C 1871.900 2925.355, 1850.452 2954.157, 1841.176 2973 C 1836.789 2981.912, 1836.500 2982.995, 1836.500 2990.500 C 1836.500 2997.387, 1836.875 2999.138, 1839.195 3003.084 C 1847.102 3016.534, 1862.069 3022.851, 1879.589 3020.132 C 1900.017 3016.962, 1930.669 3001.341, 1938.983 2989.864 C 1944.513 2982.230, 1942.354 2972.268, 1933.376 2963.992 C 1920.206 2951.853, 1903.597 2952.614, 1879.622 2966.455 C 1874.340 2969.505, 1869.788 2972, 1869.509 2972 C 1867.106 2972, 1872.031 2962.468, 1879.690 2952.291 C 1887.628 2941.743, 1908.098 2918.967, 1918.257 2909.378 C 1924.811 2903.192, 1929.263 2900.023, 1936.935 2896.082 C 1942.475 2893.237, 1947.906 2889.944, 1949.004 2888.766 C 1951.973 2885.578, 1951.531 2881.895, 1947.750 2878.316 C 1940.940 2871.870, 1936.629 2871.471, 1926.472 2876.346 M 1618.684 2881.250 C 1616.883 2888.854, 1614.093 2916.732, 1611.853 2949.500 C 1610.501 2969.286, 1610.072 3021.978, 1611.230 3026.093 C 1612.733 3031.435, 1620.001 3036.480, 1627.202 3037.180 L 1630.496 3037.500 1631.201 3030.500 C 1633.370 3008.946, 1638.542 2931.236, 1639.606 2904.203 C 1640.355 2885.191, 1639.925 2883.047, 1634.835 2880.415 C 1633.307 2879.625, 1629.255 2879, 1625.658 2879 C 1619.803 2879, 1619.168 2879.205, 1618.684 2881.250 M 1784 2888.696 C 1762.181 2892.390, 1733.464 2906.204, 1720.997 2919.003 C 1711.334 2928.924, 1708.416 2940.706, 1713.077 2950.982 C 1715.720 2956.810, 1717.534 2958.729, 1723 2961.485 C 1729.041 2964.530, 1732.827 2965.245, 1742.571 2965.180 C 1753.328 2965.108, 1760.185 2963.798, 1778.228 2958.366 C 1786.426 2955.898, 1793.781 2954.019, 1794.573 2954.190 C 1797.370 2954.793, 1790.504 2967.156, 1775.519 2988.500 C 1762.228 3007.430, 1757.919 3018.562, 1761.002 3026.004 C 1762.613 3029.895, 1764.706 3031, 1770.461 3031 C 1774.533 3031, 1775.532 3030.519, 1779.284 3026.750 C 1786.695 3019.307, 1796.180 3003.672, 1809.833 2976.389 C 1818.084 2959.903, 1821.213 2952.081, 1824.991 2938.500 C 1826.215 2934.100, 1828.743 2927.757, 1830.608 2924.404 C 1832.474 2921.051, 1834 2917.256, 1834 2915.970 C 1834 2906.835, 1819.842 2893.928, 1805.068 2889.593 C 1800.046 2888.120, 1789.943 2887.690, 1784 2888.696 M 1775.902 2911.436 C 1767.689 2913.156, 1759.424 2917.275, 1746.325 2926.177 C 1736.808 2932.645, 1729 2939.761, 1729 2941.968 C 1729 2944.291, 1733.450 2945.220, 1741.401 2944.554 C 1766.929 2942.418, 1797.889 2931.930, 1809.723 2921.409 C 1814.372 2917.275, 1814.446 2917.120, 1812.500 2915.620 C 1806.398 2910.916, 1788.279 2908.845, 1775.902 2911.436 M 1908 2978.508 C 1896.946 2981.201, 1883.037 2988.996, 1876 2996.442 C 1872.654 2999.983, 1872.610 3000.122, 1875 2999.599 C 1876.375 2999.299, 1880.183 2998.589, 1883.463 2998.021 C 1892.593 2996.441, 1913.193 2985.864, 1918.447 2980.059 C 1920.271 2978.043, 1920.266 2978, 1918.237 2978 C 1917.097 2978, 1915.564 2977.813, 1914.832 2977.584 C 1914.099 2977.355, 1911.025 2977.771, 1908 2978.508 M 1571 3067.549 C 1570.175 3067.724, 1567.813 3068.142, 1565.750 3068.479 C 1562.104 3069.074, 1562.001 3069.207, 1562.022 3073.295 C 1562.069 3082.263, 1568.397 3090.355, 1576.255 3091.494 C 1578.590 3091.833, 1596.700 3091.973, 1616.500 3091.805 C 1636.300 3091.637, 1661.890 3091.906, 1673.366 3092.402 L 1694.231 3093.304 1693.500 3090.902 C 1689.613 3078.144, 1670.221 3070.755, 1633.500 3068.042 C 1620.955 3067.116, 1574.772 3066.751, 1571 3067.549 M 1776 3067.549 C 1775.175 3067.724, 1772.813 3068.142, 1770.750 3068.479 C 1767.104 3069.074, 1767.001 3069.207, 1767.022 3073.295 C 1767.061 3080.785, 1773.409 3090.441, 1778.827 3091.250 C 1779.747 3091.387, 1798.275 3091.500, 1820 3091.500 C 1841.725 3091.500, 1868.440 3091.909, 1879.368 3092.408 L 1899.235 3093.316 1898.501 3090.908 C 1894.613 3078.143, 1875.228 3070.756, 1838.500 3068.042 C 1825.955 3067.116, 1779.772 3066.751, 1776 3067.549 M 1732.092 3078.402 C 1730.851 3079.723, 1729.593 3082.613, 1729.297 3084.826 C 1728.842 3088.218, 1729.160 3089.251, 1731.333 3091.424 C 1734.718 3094.809, 1742.376 3095.065, 1746.365 3091.927 C 1750.267 3088.858, 1749.875 3085.004, 1745.155 3080.042 C 1740.461 3075.108, 1735.743 3074.516, 1732.092 3078.402 M 1647.074 3139.877 C 1645.611 3140.286, 1644.267 3141.700, 1643.687 3143.440 C 1642.551 3146.846, 1644.107 3148.413, 1650.272 3150.073 C 1655.991 3151.613, 1658.177 3154.193, 1656.891 3157.883 C 1653.980 3166.233, 1625.270 3186, 1616.052 3186 C 1613.483 3186, 1612.991 3185.470, 1611.636 3181.250 C 1610.207 3176.799, 1609.631 3173.169, 1609.889 3170.250 C 1610.047 3168.474, 1616.511 3168.674, 1620.526 3170.579 C 1622.356 3171.448, 1624.899 3172.010, 1626.177 3171.829 C 1628.109 3171.555, 1628.550 3170.820, 1628.797 3167.456 C 1629.068 3163.779, 1628.725 3163.114, 1625.037 3160.150 C 1616.579 3153.353, 1606.684 3151.870, 1601.106 3156.564 C 1594.993 3161.708, 1594.453 3170.983, 1599.598 3182.500 C 1604.741 3194.014, 1604.765 3193.264, 1599.194 3195.240 C 1588.958 3198.870, 1569.896 3213.432, 1566.315 3220.358 C 1563.355 3226.083, 1566.709 3232.351, 1574.967 3236.524 C 1579.485 3238.807, 1593.660 3239.630, 1601.263 3238.050 C 1609.350 3236.370, 1620.449 3230.589, 1623.654 3226.387 C 1627.511 3221.330, 1627.828 3215.190, 1624.664 3206.815 C 1622.773 3201.809, 1622.435 3199.901, 1623.319 3199.217 C 1623.969 3198.715, 1628.845 3195.771, 1634.156 3192.675 C 1649.855 3183.522, 1661.069 3173.898, 1667.689 3163.894 C 1669.850 3160.628, 1670.116 3159.553, 1669.216 3157.720 C 1668.616 3156.499, 1667.826 3154.438, 1667.460 3153.139 C 1666.446 3149.542, 1659.980 3142.906, 1655.500 3140.866 C 1651.190 3138.903, 1650.748 3138.851, 1647.074 3139.877 M 1813.734 3158.088 C 1808.338 3159.359, 1802.244 3162.675, 1800.987 3165.024 C 1798.501 3169.669, 1802.677 3170.174, 1813.193 3166.500 C 1824.222 3162.647, 1826.997 3163.155, 1828.542 3169.310 C 1829.071 3171.418, 1828.436 3173.762, 1825.972 3178.804 C 1823.138 3184.604, 1819.763 3188.389, 1800.735 3207.100 C 1782.198 3225.330, 1778.875 3229.032, 1779.445 3230.828 C 1780.681 3234.721, 1786.367 3235.525, 1802.566 3234.096 C 1813.966 3233.091, 1819.242 3233.077, 1827.889 3234.032 C 1839.376 3235.301, 1845.813 3234.730, 1856.799 3231.467 C 1867.406 3228.317, 1864.482 3227.815, 1824.250 3225.878 C 1809.813 3225.183, 1798.039 3224.363, 1798.087 3224.057 C 1798.135 3223.751, 1804.020 3218.100, 1811.165 3211.500 C 1832.613 3191.688, 1838.936 3182.659, 1838.978 3171.785 C 1838.997 3166.810, 1838.601 3165.615, 1835.918 3162.559 C 1831.383 3157.395, 1823.458 3155.797, 1813.734 3158.088 M 1606.982 3207.314 C 1605.067 3208.587, 1599.568 3211.814, 1594.763 3214.486 C 1579.829 3222.789, 1578.188 3226.693, 1590.052 3225.699 C 1602.193 3224.681, 1616 3218.569, 1616 3214.212 C 1616 3212.568, 1611.932 3205, 1611.048 3205 C 1610.727 3205, 1608.897 3206.041, 1606.982 3207.314" stroke="none" fill="black" fill-rule="evenodd"/>
</svg>